<?xml version="1.0" encoding="UTF-8" standalone="no"?><svg xmlns="http://www.w3.org/2000/svg" xmlns:xlink="http://www.w3.org/1999/xlink" contentScriptType="application/ecmascript" contentStyleType="text/css" height="1315px" preserveAspectRatio="none" style="width:790px;height:1315px;" version="1.1" viewBox="0 0 790 1315" width="790px" zoomAndPan="magnify"><defs><filter height="300%" id="fjl1pirc2ax7i" width="300%" x="-1" y="-1"><feGaussianBlur result="blurOut" stdDeviation="2.0"/><feColorMatrix in="blurOut" result="blurOut2" type="matrix" values="0 0 0 0 0 0 0 0 0 0 0 0 0 0 0 0 0 0 .4 0"/><feOffset dx="4.0" dy="4.0" in="blurOut2" result="blurOut3"/><feBlend in="SourceGraphic" in2="blurOut3" mode="normal"/></filter></defs><g><!--class SpoProcedure--><rect fill="#FEFECE" filter="url(#fjl1pirc2ax7i)" height="324.7188" id="SpoProcedure" style="stroke: #A80036; stroke-width: 1.5;" width="120" x="151.5" y="8"/><ellipse cx="170.55" cy="24" fill="#ADD1B2" rx="11" ry="11" style="stroke: #A80036; stroke-width: 1.0;"/><path d="M173.3156,19.875 Q173.4719,19.6563 173.6594,19.5469 Q173.8469,19.4375 174.0656,19.4375 Q174.4406,19.4375 174.675,19.6953 Q174.9094,19.9531 174.9094,20.5625 L174.9094,22.0156 Q174.9094,22.625 174.675,22.8906 Q174.4406,23.1563 174.0656,23.1563 Q173.7219,23.1563 173.5188,22.9531 Q173.3156,22.7656 173.2063,22.25 Q173.1594,21.8906 172.9719,21.7031 Q172.6438,21.3281 172.0344,21.1094 Q171.425,20.8906 170.8,20.8906 Q170.0344,20.8906 169.4016,21.2188 Q168.7688,21.5469 168.2766,22.2969 Q167.7844,23.0469 167.7844,24.0781 L167.7844,25.1719 Q167.7844,26.4063 168.675,27.2266 Q169.5656,28.0469 171.1594,28.0469 Q172.0969,28.0469 172.7531,27.7969 Q173.1438,27.6406 173.5656,27.2031 Q173.8313,26.9375 173.9797,26.8594 Q174.1281,26.7813 174.3313,26.7813 Q174.6594,26.7813 174.9172,27.0391 Q175.175,27.2969 175.175,27.6406 Q175.175,27.9844 174.8313,28.3906 Q174.3313,28.9688 173.5344,29.2969 Q172.4563,29.75 171.1594,29.75 Q169.6438,29.75 168.4406,29.125 Q167.4563,28.625 166.7688,27.5547 Q166.0813,26.4844 166.0813,25.2031 L166.0813,24.0469 Q166.0813,22.7188 166.6984,21.5703 Q167.3156,20.4219 168.4094,19.8047 Q169.5031,19.1875 170.7375,19.1875 Q171.4719,19.1875 172.1203,19.3516 Q172.7688,19.5156 173.3156,19.875 Z "/><text fill="#000000" font-family="sans-serif" font-size="12" lengthAdjust="spacingAndGlyphs" textLength="79" x="185.45" y="28.9102">SpoProcedure</text><line style="stroke: #A80036; stroke-width: 1.5;" x1="152.5" x2="270.5" y1="40" y2="40"/><text fill="#000000" font-family="sans-serif" font-size="11" lengthAdjust="spacingAndGlyphs" textLength="61" x="157.5" y="55.4189">iddom: string</text><text fill="#000000" font-family="sans-serif" font-size="11" lengthAdjust="spacingAndGlyphs" textLength="75" x="157.5" y="69.2549">idproced: string</text><text fill="#000000" font-family="sans-serif" font-size="11" lengthAdjust="spacingAndGlyphs" textLength="75" x="157.5" y="83.0908">lbproced: string</text><text fill="#000000" font-family="sans-serif" font-size="11" lengthAdjust="spacingAndGlyphs" textLength="72" x="157.5" y="96.9268">idacteur: string</text><text fill="#000000" font-family="sans-serif" font-size="11" lengthAdjust="spacingAndGlyphs" textLength="52" x="157.5" y="110.7627">dtmaj: date</text><text fill="#000000" font-family="sans-serif" font-size="11" lengthAdjust="spacingAndGlyphs" textLength="59" x="157.5" y="124.5986">hrmaj: string</text><text fill="#000000" font-family="sans-serif" font-size="11" lengthAdjust="spacingAndGlyphs" textLength="61" x="157.5" y="138.4346">idprof: string</text><text fill="#000000" font-family="sans-serif" font-size="11" lengthAdjust="spacingAndGlyphs" textLength="52" x="157.5" y="152.2705">iduti: string</text><text fill="#000000" font-family="sans-serif" font-size="11" lengthAdjust="spacingAndGlyphs" textLength="55" x="157.5" y="166.1064">idref: string</text><text fill="#000000" font-family="sans-serif" font-size="11" lengthAdjust="spacingAndGlyphs" textLength="56" x="157.5" y="179.9424">objet: string</text><text fill="#000000" font-family="sans-serif" font-size="11" lengthAdjust="spacingAndGlyphs" textLength="74" x="157.5" y="193.7783">typdispo: string</text><text fill="#000000" font-family="sans-serif" font-size="11" lengthAdjust="spacingAndGlyphs" textLength="71" x="157.5" y="207.6143">idfamille: string</text><text fill="#000000" font-family="sans-serif" font-size="11" lengthAdjust="spacingAndGlyphs" textLength="74" x="157.5" y="221.4502">famille: boolean</text><text fill="#000000" font-family="sans-serif" font-size="11" lengthAdjust="spacingAndGlyphs" textLength="84" x="157.5" y="235.2861">extranet: boolean</text><text fill="#000000" font-family="sans-serif" font-size="11" lengthAdjust="spacingAndGlyphs" textLength="51" x="157.5" y="249.1221">etat: string</text><text fill="#000000" font-family="sans-serif" font-size="11" lengthAdjust="spacingAndGlyphs" textLength="91" x="157.5" y="262.958">idprocedfille: string</text><text fill="#000000" font-family="sans-serif" font-size="11" lengthAdjust="spacingAndGlyphs" textLength="99" x="157.5" y="276.7939">idinfodynprop: string</text><text fill="#000000" font-family="sans-serif" font-size="11" lengthAdjust="spacingAndGlyphs" textLength="96" x="157.5" y="290.6299">visibiliteext: boolean</text><text fill="#000000" font-family="sans-serif" font-size="11" lengthAdjust="spacingAndGlyphs" textLength="108" x="157.5" y="304.4658">datedebutvalidite: date</text><text fill="#000000" font-family="sans-serif" font-size="11" lengthAdjust="spacingAndGlyphs" textLength="93" x="157.5" y="318.3018">datefinvalidite: date</text><line style="stroke: #A80036; stroke-width: 1.5;" x1="152.5" x2="270.5" y1="324.7188" y2="324.7188"/><path d="M307,149 L307,166.5 L271.633,170.5 L307,174.5 L307,191.7031 A0,0 0 0 0 307,191.7031 L460,191.7031 A0,0 0 0 0 460,191.7031 L460,159 L450,149 L307,149 A0,0 0 0 0 307,149 " fill="#FBFB77" filter="url(#fjl1pirc2ax7i)" style="stroke: #A80036; stroke-width: 1.0;"/><path d="M450,149 L450,159 L460,159 L450,149 " fill="#FBFB77" style="stroke: #A80036; stroke-width: 1.0;"/><text fill="#000000" font-family="sans-serif" font-size="13" lengthAdjust="spacingAndGlyphs" textLength="67" x="313" y="167.4951">INPROCED</text><text fill="#000000" font-family="sans-serif" font-size="13" lengthAdjust="spacingAndGlyphs" textLength="132" x="313" y="183.8467">Procedure d'instruction</text><!--class SpoInEtapePI--><rect fill="#FEFECE" filter="url(#fjl1pirc2ax7i)" height="200.1953" id="SpoInEtapePI" style="stroke: #A80036; stroke-width: 1.5;" width="121" x="6" y="393"/><ellipse cx="27.3" cy="409" fill="#ADD1B2" rx="11" ry="11" style="stroke: #A80036; stroke-width: 1.0;"/><path d="M30.0656,404.875 Q30.2219,404.6563 30.4094,404.5469 Q30.5969,404.4375 30.8156,404.4375 Q31.1906,404.4375 31.425,404.6953 Q31.6594,404.9531 31.6594,405.5625 L31.6594,407.0156 Q31.6594,407.625 31.425,407.8906 Q31.1906,408.1563 30.8156,408.1563 Q30.4719,408.1563 30.2688,407.9531 Q30.0656,407.7656 29.9563,407.25 Q29.9094,406.8906 29.7219,406.7031 Q29.3938,406.3281 28.7844,406.1094 Q28.175,405.8906 27.55,405.8906 Q26.7844,405.8906 26.1516,406.2188 Q25.5188,406.5469 25.0266,407.2969 Q24.5344,408.0469 24.5344,409.0781 L24.5344,410.1719 Q24.5344,411.4063 25.425,412.2266 Q26.3156,413.0469 27.9094,413.0469 Q28.8469,413.0469 29.5031,412.7969 Q29.8938,412.6406 30.3156,412.2031 Q30.5813,411.9375 30.7297,411.8594 Q30.8781,411.7813 31.0813,411.7813 Q31.4094,411.7813 31.6672,412.0391 Q31.925,412.2969 31.925,412.6406 Q31.925,412.9844 31.5813,413.3906 Q31.0813,413.9688 30.2844,414.2969 Q29.2063,414.75 27.9094,414.75 Q26.3938,414.75 25.1906,414.125 Q24.2063,413.625 23.5188,412.5547 Q22.8313,411.4844 22.8313,410.2031 L22.8313,409.0469 Q22.8313,407.7188 23.4484,406.5703 Q24.0656,405.4219 25.1594,404.8047 Q26.2531,404.1875 27.4875,404.1875 Q28.2219,404.1875 28.8703,404.3516 Q29.5188,404.5156 30.0656,404.875 Z "/><text fill="#000000" font-family="sans-serif" font-size="12" lengthAdjust="spacingAndGlyphs" textLength="75" x="42.7" y="413.9102">SpoInEtapePI</text><line style="stroke: #A80036; stroke-width: 1.5;" x1="7" x2="126" y1="425" y2="425"/><text fill="#000000" font-family="sans-serif" font-size="11" lengthAdjust="spacingAndGlyphs" textLength="61" x="12" y="440.4189">iddom: string</text><text fill="#000000" font-family="sans-serif" font-size="11" lengthAdjust="spacingAndGlyphs" textLength="75" x="12" y="454.2549">idproced: string</text><text fill="#000000" font-family="sans-serif" font-size="11" lengthAdjust="spacingAndGlyphs" textLength="68" x="12" y="468.0908">idetape: string</text><text fill="#000000" font-family="sans-serif" font-size="11" lengthAdjust="spacingAndGlyphs" textLength="66" x="12" y="481.9268">oblig: boolean</text><text fill="#000000" font-family="sans-serif" font-size="11" lengthAdjust="spacingAndGlyphs" textLength="73" x="12" y="495.7627">condit: boolean</text><text fill="#000000" font-family="sans-serif" font-size="11" lengthAdjust="spacingAndGlyphs" textLength="83" x="12" y="509.5986">administ: boolean</text><text fill="#000000" font-family="sans-serif" font-size="11" lengthAdjust="spacingAndGlyphs" textLength="88" x="12" y="523.4346">prevision: boolean</text><text fill="#000000" font-family="sans-serif" font-size="11" lengthAdjust="spacingAndGlyphs" textLength="61" x="12" y="537.2705">delai: integer</text><text fill="#000000" font-family="sans-serif" font-size="11" lengthAdjust="spacingAndGlyphs" textLength="85" x="12" y="551.1064">numordre: integer</text><text fill="#000000" font-family="sans-serif" font-size="11" lengthAdjust="spacingAndGlyphs" textLength="68" x="12" y="564.9424">gantt: boolean</text><text fill="#000000" font-family="sans-serif" font-size="11" lengthAdjust="spacingAndGlyphs" textLength="109" x="12" y="578.7783">suividoscreat: boolean</text><line style="stroke: #A80036; stroke-width: 1.5;" x1="7" x2="126" y1="585.1953" y2="585.1953"/><path d="M162,471.5 L162,489 L127.129,493 L162,497 L162,514.2031 A0,0 0 0 0 162,514.2031 L303,514.2031 A0,0 0 0 0 303,514.2031 L303,481.5 L293,471.5 L162,471.5 A0,0 0 0 0 162,471.5 " fill="#FBFB77" filter="url(#fjl1pirc2ax7i)" style="stroke: #A80036; stroke-width: 1.0;"/><path d="M293,471.5 L293,481.5 L303,481.5 L293,471.5 " fill="#FBFB77" style="stroke: #A80036; stroke-width: 1.0;"/><text fill="#000000" font-family="sans-serif" font-size="13" lengthAdjust="spacingAndGlyphs" textLength="58" x="168" y="489.9951">INETAPPI</text><text fill="#000000" font-family="sans-serif" font-size="13" lengthAdjust="spacingAndGlyphs" textLength="120" x="168" y="506.3467">Etapes de procedure</text><!--class SpoInEtape--><rect fill="#FEFECE" filter="url(#fjl1pirc2ax7i)" height="117.1797" id="SpoInEtape" style="stroke: #A80036; stroke-width: 1.5;" width="96" x="18.5" y="701.5"/><ellipse cx="33.5" cy="717.5" fill="#ADD1B2" rx="11" ry="11" style="stroke: #A80036; stroke-width: 1.0;"/><path d="M36.2656,713.375 Q36.4219,713.1563 36.6094,713.0469 Q36.7969,712.9375 37.0156,712.9375 Q37.3906,712.9375 37.625,713.1953 Q37.8594,713.4531 37.8594,714.0625 L37.8594,715.5156 Q37.8594,716.125 37.625,716.3906 Q37.3906,716.6563 37.0156,716.6563 Q36.6719,716.6563 36.4688,716.4531 Q36.2656,716.2656 36.1563,715.75 Q36.1094,715.3906 35.9219,715.2031 Q35.5938,714.8281 34.9844,714.6094 Q34.375,714.3906 33.75,714.3906 Q32.9844,714.3906 32.3516,714.7188 Q31.7188,715.0469 31.2266,715.7969 Q30.7344,716.5469 30.7344,717.5781 L30.7344,718.6719 Q30.7344,719.9063 31.625,720.7266 Q32.5156,721.5469 34.1094,721.5469 Q35.0469,721.5469 35.7031,721.2969 Q36.0938,721.1406 36.5156,720.7031 Q36.7813,720.4375 36.9297,720.3594 Q37.0781,720.2813 37.2813,720.2813 Q37.6094,720.2813 37.8672,720.5391 Q38.125,720.7969 38.125,721.1406 Q38.125,721.4844 37.7813,721.8906 Q37.2813,722.4688 36.4844,722.7969 Q35.4063,723.25 34.1094,723.25 Q32.5938,723.25 31.3906,722.625 Q30.4063,722.125 29.7188,721.0547 Q29.0313,719.9844 29.0313,718.7031 L29.0313,717.5469 Q29.0313,716.2188 29.6484,715.0703 Q30.2656,713.9219 31.3594,713.3047 Q32.4531,712.6875 33.6875,712.6875 Q34.4219,712.6875 35.0703,712.8516 Q35.7188,713.0156 36.2656,713.375 Z "/><text fill="#000000" font-family="sans-serif" font-size="12" lengthAdjust="spacingAndGlyphs" textLength="64" x="47.5" y="722.4102">SpoInEtape</text><line style="stroke: #A80036; stroke-width: 1.5;" x1="19.5" x2="113.5" y1="733.5" y2="733.5"/><text fill="#000000" font-family="sans-serif" font-size="11" lengthAdjust="spacingAndGlyphs" textLength="68" x="24.5" y="748.9189">idetape: string</text><text fill="#000000" font-family="sans-serif" font-size="11" lengthAdjust="spacingAndGlyphs" textLength="68" x="24.5" y="762.7549">lbetape: string</text><text fill="#000000" font-family="sans-serif" font-size="11" lengthAdjust="spacingAndGlyphs" textLength="61" x="24.5" y="776.5908">idprof: string</text><text fill="#000000" font-family="sans-serif" font-size="11" lengthAdjust="spacingAndGlyphs" textLength="52" x="24.5" y="790.4268">iduti: string</text><text fill="#000000" font-family="sans-serif" font-size="11" lengthAdjust="spacingAndGlyphs" textLength="84" x="24.5" y="804.2627">extranet: boolean</text><line style="stroke: #A80036; stroke-width: 1.5;" x1="19.5" x2="113.5" y1="810.6797" y2="810.6797"/><path d="M149.5,738.5 L149.5,756 L114.711,760 L149.5,764 L149.5,781.2031 A0,0 0 0 0 149.5,781.2031 L225.5,781.2031 A0,0 0 0 0 225.5,781.2031 L225.5,748.5 L215.5,738.5 L149.5,738.5 A0,0 0 0 0 149.5,738.5 " fill="#FBFB77" filter="url(#fjl1pirc2ax7i)" style="stroke: #A80036; stroke-width: 1.0;"/><path d="M215.5,738.5 L215.5,748.5 L225.5,748.5 L215.5,738.5 " fill="#FBFB77" style="stroke: #A80036; stroke-width: 1.0;"/><text fill="#000000" font-family="sans-serif" font-size="13" lengthAdjust="spacingAndGlyphs" textLength="55" x="155.5" y="756.9951">INETAPE</text><text fill="#000000" font-family="sans-serif" font-size="13" lengthAdjust="spacingAndGlyphs" textLength="34" x="155.5" y="773.3467">Etape</text><!--class SpoInCPEtapeI--><rect fill="#FEFECE" filter="url(#fjl1pirc2ax7i)" height="214.0313" id="SpoInCPEtapeI" style="stroke: #A80036; stroke-width: 1.5;" width="116" x="279.5" y="653"/><ellipse cx="294.5" cy="669" fill="#ADD1B2" rx="11" ry="11" style="stroke: #A80036; stroke-width: 1.0;"/><path d="M297.2656,664.875 Q297.4219,664.6563 297.6094,664.5469 Q297.7969,664.4375 298.0156,664.4375 Q298.3906,664.4375 298.625,664.6953 Q298.8594,664.9531 298.8594,665.5625 L298.8594,667.0156 Q298.8594,667.625 298.625,667.8906 Q298.3906,668.1563 298.0156,668.1563 Q297.6719,668.1563 297.4688,667.9531 Q297.2656,667.7656 297.1563,667.25 Q297.1094,666.8906 296.9219,666.7031 Q296.5938,666.3281 295.9844,666.1094 Q295.375,665.8906 294.75,665.8906 Q293.9844,665.8906 293.3516,666.2188 Q292.7188,666.5469 292.2266,667.2969 Q291.7344,668.0469 291.7344,669.0781 L291.7344,670.1719 Q291.7344,671.4063 292.625,672.2266 Q293.5156,673.0469 295.1094,673.0469 Q296.0469,673.0469 296.7031,672.7969 Q297.0938,672.6406 297.5156,672.2031 Q297.7813,671.9375 297.9297,671.8594 Q298.0781,671.7813 298.2813,671.7813 Q298.6094,671.7813 298.8672,672.0391 Q299.125,672.2969 299.125,672.6406 Q299.125,672.9844 298.7813,673.3906 Q298.2813,673.9688 297.4844,674.2969 Q296.4063,674.75 295.1094,674.75 Q293.5938,674.75 292.3906,674.125 Q291.4063,673.625 290.7188,672.5547 Q290.0313,671.4844 290.0313,670.2031 L290.0313,669.0469 Q290.0313,667.7188 290.6484,666.5703 Q291.2656,665.4219 292.3594,664.8047 Q293.4531,664.1875 294.6875,664.1875 Q295.4219,664.1875 296.0703,664.3516 Q296.7188,664.5156 297.2656,664.875 Z "/><text fill="#000000" font-family="sans-serif" font-size="12" lengthAdjust="spacingAndGlyphs" textLength="84" x="308.5" y="673.9102">SpoInCPEtapeI</text><line style="stroke: #A80036; stroke-width: 1.5;" x1="280.5" x2="394.5" y1="685" y2="685"/><text fill="#000000" font-family="sans-serif" font-size="11" lengthAdjust="spacingAndGlyphs" textLength="61" x="285.5" y="700.4189">iddom: string</text><text fill="#000000" font-family="sans-serif" font-size="11" lengthAdjust="spacingAndGlyphs" textLength="75" x="285.5" y="714.2549">idproced: string</text><text fill="#000000" font-family="sans-serif" font-size="11" lengthAdjust="spacingAndGlyphs" textLength="68" x="285.5" y="728.0908">idetape: string</text><text fill="#000000" font-family="sans-serif" font-size="11" lengthAdjust="spacingAndGlyphs" textLength="70" x="285.5" y="741.9268">idaction: string</text><text fill="#000000" font-family="sans-serif" font-size="11" lengthAdjust="spacingAndGlyphs" textLength="83" x="285.5" y="755.7627">administ: boolean</text><text fill="#000000" font-family="sans-serif" font-size="11" lengthAdjust="spacingAndGlyphs" textLength="79" x="285.5" y="769.5986">autoraf: boolean</text><text fill="#000000" font-family="sans-serif" font-size="11" lengthAdjust="spacingAndGlyphs" textLength="66" x="285.5" y="783.4346">oblig: boolean</text><text fill="#000000" font-family="sans-serif" font-size="11" lengthAdjust="spacingAndGlyphs" textLength="73" x="285.5" y="797.2705">destin: boolean</text><text fill="#000000" font-family="sans-serif" font-size="11" lengthAdjust="spacingAndGlyphs" textLength="61" x="285.5" y="811.1064">delai: integer</text><text fill="#000000" font-family="sans-serif" font-size="11" lengthAdjust="spacingAndGlyphs" textLength="82" x="285.5" y="824.9424">useicon: boolean</text><text fill="#000000" font-family="sans-serif" font-size="11" lengthAdjust="spacingAndGlyphs" textLength="85" x="285.5" y="838.7783">numordre: integer</text><text fill="#000000" font-family="sans-serif" font-size="11" lengthAdjust="spacingAndGlyphs" textLength="68" x="285.5" y="852.6143">gantt: boolean</text><line style="stroke: #A80036; stroke-width: 1.5;" x1="280.5" x2="394.5" y1="859.0313" y2="859.0313"/><path d="M430.5,738.5 L430.5,756 L395.617,760 L430.5,764 L430.5,781.2031 A0,0 0 0 0 430.5,781.2031 L588.5,781.2031 A0,0 0 0 0 588.5,781.2031 L588.5,748.5 L578.5,738.5 L430.5,738.5 A0,0 0 0 0 430.5,738.5 " fill="#FBFB77" filter="url(#fjl1pirc2ax7i)" style="stroke: #A80036; stroke-width: 1.0;"/><path d="M578.5,738.5 L578.5,748.5 L588.5,748.5 L578.5,738.5 " fill="#FBFB77" style="stroke: #A80036; stroke-width: 1.0;"/><text fill="#000000" font-family="sans-serif" font-size="13" lengthAdjust="spacingAndGlyphs" textLength="67" x="436.5" y="756.9951">INCPETAPI</text><text fill="#000000" font-family="sans-serif" font-size="13" lengthAdjust="spacingAndGlyphs" textLength="137" x="436.5" y="773.3467">Actions de la procedure</text><!--class SpoInAction--><rect fill="#FEFECE" filter="url(#fjl1pirc2ax7i)" height="186.3594" id="SpoInAction" style="stroke: #A80036; stroke-width: 1.5;" width="97" x="163" y="927"/><ellipse cx="178" cy="943" fill="#ADD1B2" rx="11" ry="11" style="stroke: #A80036; stroke-width: 1.0;"/><path d="M180.7656,938.875 Q180.9219,938.6563 181.1094,938.5469 Q181.2969,938.4375 181.5156,938.4375 Q181.8906,938.4375 182.125,938.6953 Q182.3594,938.9531 182.3594,939.5625 L182.3594,941.0156 Q182.3594,941.625 182.125,941.8906 Q181.8906,942.1563 181.5156,942.1563 Q181.1719,942.1563 180.9688,941.9531 Q180.7656,941.7656 180.6563,941.25 Q180.6094,940.8906 180.4219,940.7031 Q180.0938,940.3281 179.4844,940.1094 Q178.875,939.8906 178.25,939.8906 Q177.4844,939.8906 176.8516,940.2188 Q176.2188,940.5469 175.7266,941.2969 Q175.2344,942.0469 175.2344,943.0781 L175.2344,944.1719 Q175.2344,945.4063 176.125,946.2266 Q177.0156,947.0469 178.6094,947.0469 Q179.5469,947.0469 180.2031,946.7969 Q180.5938,946.6406 181.0156,946.2031 Q181.2813,945.9375 181.4297,945.8594 Q181.5781,945.7813 181.7813,945.7813 Q182.1094,945.7813 182.3672,946.0391 Q182.625,946.2969 182.625,946.6406 Q182.625,946.9844 182.2813,947.3906 Q181.7813,947.9688 180.9844,948.2969 Q179.9063,948.75 178.6094,948.75 Q177.0938,948.75 175.8906,948.125 Q174.9063,947.625 174.2188,946.5547 Q173.5313,945.4844 173.5313,944.2031 L173.5313,943.0469 Q173.5313,941.7188 174.1484,940.5703 Q174.7656,939.4219 175.8594,938.8047 Q176.9531,938.1875 178.1875,938.1875 Q178.9219,938.1875 179.5703,938.3516 Q180.2188,938.5156 180.7656,938.875 Z "/><text fill="#000000" font-family="sans-serif" font-size="12" lengthAdjust="spacingAndGlyphs" textLength="65" x="192" y="947.9102">SpoInAction</text><line style="stroke: #A80036; stroke-width: 1.5;" x1="164" x2="259" y1="959" y2="959"/><text fill="#000000" font-family="sans-serif" font-size="11" lengthAdjust="spacingAndGlyphs" textLength="70" x="169" y="974.4189">idaction: string</text><text fill="#000000" font-family="sans-serif" font-size="11" lengthAdjust="spacingAndGlyphs" textLength="70" x="169" y="988.2549">lbaction: string</text><text fill="#000000" font-family="sans-serif" font-size="11" lengthAdjust="spacingAndGlyphs" textLength="78" x="169" y="1002.0908">idsupport: string</text><text fill="#000000" font-family="sans-serif" font-size="11" lengthAdjust="spacingAndGlyphs" textLength="75" x="169" y="1015.9268">idforme: integer</text><text fill="#000000" font-family="sans-serif" font-size="11" lengthAdjust="spacingAndGlyphs" textLength="69" x="169" y="1029.7627">lbforme: string</text><text fill="#000000" font-family="sans-serif" font-size="11" lengthAdjust="spacingAndGlyphs" textLength="77" x="169" y="1043.5986">nataction: string</text><text fill="#000000" font-family="sans-serif" font-size="11" lengthAdjust="spacingAndGlyphs" textLength="66" x="169" y="1057.4346">trtvx: boolean</text><text fill="#000000" font-family="sans-serif" font-size="11" lengthAdjust="spacingAndGlyphs" textLength="61" x="169" y="1071.2705">idprof: string</text><text fill="#000000" font-family="sans-serif" font-size="11" lengthAdjust="spacingAndGlyphs" textLength="52" x="169" y="1085.1064">iduti: string</text><text fill="#000000" font-family="sans-serif" font-size="11" lengthAdjust="spacingAndGlyphs" textLength="84" x="169" y="1098.9424">extranet: boolean</text><line style="stroke: #A80036; stroke-width: 1.5;" x1="164" x2="259" y1="1105.3594" y2="1105.3594"/><path d="M295.5,998.5 L295.5,1016 L260.422,1020 L295.5,1024 L295.5,1041.2031 A0,0 0 0 0 295.5,1041.2031 L375.5,1041.2031 A0,0 0 0 0 375.5,1041.2031 L375.5,1008.5 L365.5,998.5 L295.5,998.5 A0,0 0 0 0 295.5,998.5 " fill="#FBFB77" filter="url(#fjl1pirc2ax7i)" style="stroke: #A80036; stroke-width: 1.0;"/><path d="M365.5,998.5 L365.5,1008.5 L375.5,1008.5 L365.5,998.5 " fill="#FBFB77" style="stroke: #A80036; stroke-width: 1.0;"/><text fill="#000000" font-family="sans-serif" font-size="13" lengthAdjust="spacingAndGlyphs" textLength="59" x="301.5" y="1016.9951">INACTION</text><text fill="#000000" font-family="sans-serif" font-size="13" lengthAdjust="spacingAndGlyphs" textLength="37" x="301.5" y="1033.3467">Action</text><!--class SpoInEMETPI--><rect fill="#FEFECE" filter="url(#fjl1pirc2ax7i)" height="117.1797" id="SpoInEMETPI" style="stroke: #A80036; stroke-width: 1.5;" width="107" x="411" y="961.5"/><ellipse cx="426" cy="977.5" fill="#ADD1B2" rx="11" ry="11" style="stroke: #A80036; stroke-width: 1.0;"/><path d="M428.7656,973.375 Q428.9219,973.1563 429.1094,973.0469 Q429.2969,972.9375 429.5156,972.9375 Q429.8906,972.9375 430.125,973.1953 Q430.3594,973.4531 430.3594,974.0625 L430.3594,975.5156 Q430.3594,976.125 430.125,976.3906 Q429.8906,976.6563 429.5156,976.6563 Q429.1719,976.6563 428.9688,976.4531 Q428.7656,976.2656 428.6563,975.75 Q428.6094,975.3906 428.4219,975.2031 Q428.0938,974.8281 427.4844,974.6094 Q426.875,974.3906 426.25,974.3906 Q425.4844,974.3906 424.8516,974.7188 Q424.2188,975.0469 423.7266,975.7969 Q423.2344,976.5469 423.2344,977.5781 L423.2344,978.6719 Q423.2344,979.9063 424.125,980.7266 Q425.0156,981.5469 426.6094,981.5469 Q427.5469,981.5469 428.2031,981.2969 Q428.5938,981.1406 429.0156,980.7031 Q429.2813,980.4375 429.4297,980.3594 Q429.5781,980.2813 429.7813,980.2813 Q430.1094,980.2813 430.3672,980.5391 Q430.625,980.7969 430.625,981.1406 Q430.625,981.4844 430.2813,981.8906 Q429.7813,982.4688 428.9844,982.7969 Q427.9063,983.25 426.6094,983.25 Q425.0938,983.25 423.8906,982.625 Q422.9063,982.125 422.2188,981.0547 Q421.5313,979.9844 421.5313,978.7031 L421.5313,977.5469 Q421.5313,976.2188 422.1484,975.0703 Q422.7656,973.9219 423.8594,973.3047 Q424.9531,972.6875 426.1875,972.6875 Q426.9219,972.6875 427.5703,972.8516 Q428.2188,973.0156 428.7656,973.375 Z "/><text fill="#000000" font-family="sans-serif" font-size="12" lengthAdjust="spacingAndGlyphs" textLength="75" x="440" y="982.4102">SpoInEMETPI</text><line style="stroke: #A80036; stroke-width: 1.5;" x1="412" x2="517" y1="993.5" y2="993.5"/><text fill="#000000" font-family="sans-serif" font-size="11" lengthAdjust="spacingAndGlyphs" textLength="61" x="417" y="1008.9189">iddom: string</text><text fill="#000000" font-family="sans-serif" font-size="11" lengthAdjust="spacingAndGlyphs" textLength="75" x="417" y="1022.7549">idproced: string</text><text fill="#000000" font-family="sans-serif" font-size="11" lengthAdjust="spacingAndGlyphs" textLength="68" x="417" y="1036.5908">idetape: string</text><text fill="#000000" font-family="sans-serif" font-size="11" lengthAdjust="spacingAndGlyphs" textLength="70" x="417" y="1050.4268">idaction: string</text><text fill="#000000" font-family="sans-serif" font-size="11" lengthAdjust="spacingAndGlyphs" textLength="72" x="417" y="1064.2627">idacteur: string</text><line style="stroke: #A80036; stroke-width: 1.5;" x1="412" x2="517" y1="1070.6797" y2="1070.6797"/><path d="M553,998.5 L553,1016 L518.094,1020 L553,1024 L553,1041.2031 A0,0 0 0 0 553,1041.2031 L768,1041.2031 A0,0 0 0 0 768,1041.2031 L768,1008.5 L758,998.5 L553,998.5 A0,0 0 0 0 553,998.5 " fill="#FBFB77" filter="url(#fjl1pirc2ax7i)" style="stroke: #A80036; stroke-width: 1.0;"/><path d="M758,998.5 L758,1008.5 L768,1008.5 L758,998.5 " fill="#FBFB77" style="stroke: #A80036; stroke-width: 1.0;"/><text fill="#000000" font-family="sans-serif" font-size="13" lengthAdjust="spacingAndGlyphs" textLength="60" x="559" y="1016.9951">INEMETPI</text><text fill="#000000" font-family="sans-serif" font-size="13" lengthAdjust="spacingAndGlyphs" textLength="194" x="559" y="1033.3467">Acteurs sur Actions de procedure</text><!--class SpoActionsConditionnellesPIN02--><rect fill="#FEFECE" filter="url(#fjl1pirc2ax7i)" height="131.0156" id="SpoActionsConditionnellesPIN02" style="stroke: #A80036; stroke-width: 1.5;" width="215" x="357" y="1173"/><ellipse cx="372" cy="1189" fill="#ADD1B2" rx="11" ry="11" style="stroke: #A80036; stroke-width: 1.0;"/><path d="M374.7656,1184.875 Q374.9219,1184.6563 375.1094,1184.5469 Q375.2969,1184.4375 375.5156,1184.4375 Q375.8906,1184.4375 376.125,1184.6953 Q376.3594,1184.9531 376.3594,1185.5625 L376.3594,1187.0156 Q376.3594,1187.625 376.125,1187.8906 Q375.8906,1188.1563 375.5156,1188.1563 Q375.1719,1188.1563 374.9688,1187.9531 Q374.7656,1187.7656 374.6563,1187.25 Q374.6094,1186.8906 374.4219,1186.7031 Q374.0938,1186.3281 373.4844,1186.1094 Q372.875,1185.8906 372.25,1185.8906 Q371.4844,1185.8906 370.8516,1186.2188 Q370.2188,1186.5469 369.7266,1187.2969 Q369.2344,1188.0469 369.2344,1189.0781 L369.2344,1190.1719 Q369.2344,1191.4063 370.125,1192.2266 Q371.0156,1193.0469 372.6094,1193.0469 Q373.5469,1193.0469 374.2031,1192.7969 Q374.5938,1192.6406 375.0156,1192.2031 Q375.2813,1191.9375 375.4297,1191.8594 Q375.5781,1191.7813 375.7813,1191.7813 Q376.1094,1191.7813 376.3672,1192.0391 Q376.625,1192.2969 376.625,1192.6406 Q376.625,1192.9844 376.2813,1193.3906 Q375.7813,1193.9688 374.9844,1194.2969 Q373.9063,1194.75 372.6094,1194.75 Q371.0938,1194.75 369.8906,1194.125 Q368.9063,1193.625 368.2188,1192.5547 Q367.5313,1191.4844 367.5313,1190.2031 L367.5313,1189.0469 Q367.5313,1187.7188 368.1484,1186.5703 Q368.7656,1185.4219 369.8594,1184.8047 Q370.9531,1184.1875 372.1875,1184.1875 Q372.9219,1184.1875 373.5703,1184.3516 Q374.2188,1184.5156 374.7656,1184.875 Z "/><text fill="#000000" font-family="sans-serif" font-size="12" lengthAdjust="spacingAndGlyphs" textLength="183" x="386" y="1193.9102">SpoActionsConditionnellesPIN02</text><line style="stroke: #A80036; stroke-width: 1.5;" x1="358" x2="571" y1="1205" y2="1205"/><text fill="#000000" font-family="sans-serif" font-size="11" lengthAdjust="spacingAndGlyphs" textLength="61" x="363" y="1220.4189">iddom: string</text><text fill="#000000" font-family="sans-serif" font-size="11" lengthAdjust="spacingAndGlyphs" textLength="75" x="363" y="1234.2549">idproced: string</text><text fill="#000000" font-family="sans-serif" font-size="11" lengthAdjust="spacingAndGlyphs" textLength="68" x="363" y="1248.0908">idetape: string</text><text fill="#000000" font-family="sans-serif" font-size="11" lengthAdjust="spacingAndGlyphs" textLength="70" x="363" y="1261.9268">idaction: string</text><text fill="#000000" font-family="sans-serif" font-size="11" lengthAdjust="spacingAndGlyphs" textLength="72" x="363" y="1275.7627">idacteur: string</text><text fill="#000000" font-family="sans-serif" font-size="11" lengthAdjust="spacingAndGlyphs" textLength="72" x="363" y="1289.5986">etapcon: string</text><line style="stroke: #A80036; stroke-width: 1.5;" x1="358" x2="571" y1="1296.0156" y2="1296.0156"/><path d="M607,1217 L607,1234.5 L572.266,1238.5 L607,1242.5 L607,1259.7031 A0,0 0 0 0 607,1259.7031 L778,1259.7031 A0,0 0 0 0 778,1259.7031 L778,1227 L768,1217 L607,1217 A0,0 0 0 0 607,1217 " fill="#FBFB77" filter="url(#fjl1pirc2ax7i)" style="stroke: #A80036; stroke-width: 1.0;"/><path d="M768,1217 L768,1227 L778,1227 L768,1217 " fill="#FBFB77" style="stroke: #A80036; stroke-width: 1.0;"/><text fill="#000000" font-family="sans-serif" font-size="13" lengthAdjust="spacingAndGlyphs" textLength="70" x="613" y="1235.4951">INCPCONPI</text><text fill="#000000" font-family="sans-serif" font-size="13" lengthAdjust="spacingAndGlyphs" textLength="150" x="613" y="1251.8467">Actions conditionnelles PI</text><!--link SpoProcedure to SpoInEtapePI--><path d="M151.476,304.173 C138.808,332.173 125.617,361.332 113.511,388.089 " fill="none" id="SpoProcedure-SpoInEtapePI" style="stroke: #A80036; stroke-width: 1.0;"/><polygon fill="#A80036" points="111.421,392.708,118.7756,386.1574,113.4823,388.1527,111.487,382.8594,111.421,392.708" style="stroke: #A80036; stroke-width: 1.0;"/><text fill="#000000" font-family="sans-serif" font-size="13" lengthAdjust="spacingAndGlyphs" textLength="7" x="136.337" y="317.8071">1</text><text fill="#000000" font-family="sans-serif" font-size="13" lengthAdjust="spacingAndGlyphs" textLength="39" x="74.2884" y="382.2562">etapes</text><!--link SpoInEtapePI to SpoInEtape--><path d="M66.5,593.053 C66.5,627.518 66.5,665.213 66.5,695.955 " fill="none" id="SpoInEtapePI-SpoInEtape" style="stroke: #A80036; stroke-width: 1.0;"/><polygon fill="#A80036" points="66.5,701.218,70.5,692.218,66.5,696.218,62.5,692.218,66.5,701.218" style="stroke: #A80036; stroke-width: 1.0;"/><text fill="#000000" font-family="sans-serif" font-size="13" lengthAdjust="spacingAndGlyphs" textLength="7" x="59.232" y="614.8269">1</text><text fill="#000000" font-family="sans-serif" font-size="13" lengthAdjust="spacingAndGlyphs" textLength="32" x="32.55" y="690.5845">etape</text><!--link SpoInEtapePI to SpoInCPEtapeI--><path d="M127.26,576.085 C132.836,582.05 138.611,587.768 144.5,593 C182.678,626.921 203.266,620.306 242.5,653 C253.928,662.523 265.234,673.428 275.844,684.539 " fill="none" id="SpoInEtapePI-SpoInCPEtapeI" style="stroke: #A80036; stroke-width: 1.0;"/><polygon fill="#A80036" points="279.414,688.313,276.1324,679.0269,275.9769,684.6817,270.3222,684.5262,279.414,688.313" style="stroke: #A80036; stroke-width: 1.0;"/><text fill="#000000" font-family="sans-serif" font-size="13" lengthAdjust="spacingAndGlyphs" textLength="7" x="135.0917" y="582.7406">1</text><text fill="#000000" font-family="sans-serif" font-size="13" lengthAdjust="spacingAndGlyphs" textLength="42" x="229.2583" y="677.6069">actions</text><!--link SpoInCPEtapeI to SpoInAction--><path d="M285.706,867.055 C276.758,885.377 267.498,904.338 258.68,922.392 " fill="none" id="SpoInCPEtapeI-SpoInAction" style="stroke: #A80036; stroke-width: 1.0;"/><polygon fill="#A80036" points="256.449,926.962,263.9929,920.6304,258.6433,922.4692,256.8044,917.1196,256.449,926.962" style="stroke: #A80036; stroke-width: 1.0;"/><text fill="#000000" font-family="sans-serif" font-size="13" lengthAdjust="spacingAndGlyphs" textLength="7" x="274.8181" y="888.6512">1</text><text fill="#000000" font-family="sans-serif" font-size="13" lengthAdjust="spacingAndGlyphs" textLength="35" x="223.7221" y="916.0896">action</text><!--link SpoInCPEtapeI to SpoInEMETPI--><path d="M389.706,867.055 C404.71,897.536 420.583,929.783 433.828,956.691 " fill="none" id="SpoInCPEtapeI-SpoInEMETPI" style="stroke: #A80036; stroke-width: 1.0;"/><polygon fill="#A80036" points="436.1,961.306,435.7157,951.4646,433.8926,956.8197,428.5375,954.9966,436.1,961.306" style="stroke: #A80036; stroke-width: 1.0;"/><text fill="#000000" font-family="sans-serif" font-size="13" lengthAdjust="spacingAndGlyphs" textLength="7" x="386.1306" y="888.6512">1</text><text fill="#000000" font-family="sans-serif" font-size="13" lengthAdjust="spacingAndGlyphs" textLength="43" x="387.0184" y="950.6833">acteurs</text><!--link SpoInEMETPI to SpoActionsConditionnellesPIN02--><path d="M464.5,1078.734 C464.5,1105.974 464.5,1138.716 464.5,1167.372 " fill="none" id="SpoInEMETPI-SpoActionsConditionnellesPIN02" style="stroke: #A80036; stroke-width: 1.0;"/><polygon fill="#A80036" points="464.5,1172.673,468.5,1163.673,464.5,1167.673,460.5,1163.673,464.5,1172.673" style="stroke: #A80036; stroke-width: 1.0;"/><text fill="#000000" font-family="sans-serif" font-size="13" lengthAdjust="spacingAndGlyphs" textLength="7" x="457.0734" y="1100.3728">1</text><text fill="#000000" font-family="sans-serif" font-size="13" lengthAdjust="spacingAndGlyphs" textLength="130" x="327.3906" y="1162.1117">actionsConditionnelles</text><!--link SpoProcedure to SpoInCPEtapeI--><path d="M271.636,296.86 C277.627,309.095 283.654,321.302 289.5,333 C302.917,359.85 312.736,364.006 320.5,393 C342.796,476.257 346.252,573.914 344.566,647.403 " fill="none" id="SpoProcedure-SpoInCPEtapeI" style="stroke: #A80036; stroke-width: 1.0;"/><polygon fill="#A80036" points="344.436,652.652,348.6585,643.7542,344.5603,647.6535,340.6609,643.5554,344.436,652.652" style="stroke: #A80036; stroke-width: 1.0;"/><text fill="#000000" font-family="sans-serif" font-size="13" lengthAdjust="spacingAndGlyphs" textLength="7" x="279.3916" y="308.8188">1</text><text fill="#000000" font-family="sans-serif" font-size="13" lengthAdjust="spacingAndGlyphs" textLength="42" x="301.4471" y="642.048">actions</text><!--
@startuml
class SpoProcedure {
  iddom: string
  idproced: string
  lbproced: string
  idacteur: string
  dtmaj: date
  hrmaj: string
  idprof: string
  iduti: string
  idref: string
  objet: string
  typdispo: string
  idfamille: string
  famille: boolean
  extranet: boolean
  etat: string
  idprocedfille: string
  idinfodynprop: string
  visibiliteext: boolean
  datedebutvalidite: date
  datefinvalidite: date
}
note right of  SpoProcedure
INPROCED
Procedure d'instruction
end note
class SpoInEtapePI {
  iddom: string
  idproced: string
  idetape: string
  oblig: boolean
  condit: boolean
  administ: boolean
  prevision: boolean
  delai: integer
  numordre: integer
  gantt: boolean
  suividoscreat: boolean
}
note right of  SpoInEtapePI
INETAPPI
Etapes de procedure
end note
class SpoInEtape {
  idetape: string
  lbetape: string
  idprof: string
  iduti: string
  extranet: boolean
}
note right of  SpoInEtape
INETAPE
Etape
end note
class SpoInCPEtapeI {
  iddom: string
  idproced: string
  idetape: string
  idaction: string
  administ: boolean
  autoraf: boolean
  oblig: boolean
  destin: boolean
  delai: integer
  useicon: boolean
  numordre: integer
  gantt: boolean
}
note right of  SpoInCPEtapeI
INCPETAPI
Actions de la procedure
end note
class SpoInAction {
  idaction: string
  lbaction: string
  idsupport: string
  idforme: integer
  lbforme: string
  nataction: string
  trtvx: boolean
  idprof: string
  iduti: string
  extranet: boolean
}
note right of  SpoInAction
INACTION
Action
end note
class SpoInEMETPI {
  iddom: string
  idproced: string
  idetape: string
  idaction: string
  idacteur: string
}
note right of  SpoInEMETPI
INEMETPI
Acteurs sur Actions de procedure
end note
class SpoActionsConditionnellesPIN02 {
  iddom: string
  idproced: string
  idetape: string
  idaction: string
  idacteur: string
  etapcon: string
}
note right of  SpoActionsConditionnellesPIN02
INCPCONPI
Actions conditionnelles PI
end note
SpoProcedure"1"  - -> "etapes" SpoInEtapePI
SpoInEtapePI"1"  - -> "etape" SpoInEtape
SpoInEtapePI"1"  - -> "actions" SpoInCPEtapeI
SpoInCPEtapeI"1"  - -> "action" SpoInAction
SpoInCPEtapeI"1"  - -> "acteurs" SpoInEMETPI
SpoInEMETPI"1"  - -> "actionsConditionnelles" SpoActionsConditionnellesPIN02
SpoProcedure"1"  - -> "actions" SpoInCPEtapeI
@enduml

PlantUML version 1.2019.06(Fri May 24 19:10:25 CEST 2019)
(GPL source distribution)
Java Runtime: Java(TM) SE Runtime Environment
JVM: Java HotSpot(TM) 64-Bit Server VM
Java Version: 1.8.0_241-b07
Operating System: Windows 10
OS Version: 10.0
Default Encoding: Cp1252
Language: fr
Country: FR
--></g></svg>