<?xml version="1.0" encoding="UTF-8" standalone="no"?><svg xmlns="http://www.w3.org/2000/svg" xmlns:xlink="http://www.w3.org/1999/xlink" contentScriptType="application/ecmascript" contentStyleType="text/css" height="352px" preserveAspectRatio="none" style="width:365px;height:352px;" version="1.1" viewBox="0 0 365 352" width="365px" zoomAndPan="magnify"><defs><filter height="300%" id="fki7xkykym07e" width="300%" x="-1" y="-1"><feGaussianBlur result="blurOut" stdDeviation="2.0"/><feColorMatrix in="blurOut" result="blurOut2" type="matrix" values="0 0 0 0 0 0 0 0 0 0 0 0 0 0 0 0 0 0 .4 0"/><feOffset dx="4.0" dy="4.0" in="blurOut2" result="blurOut3"/><feBlend in="SourceGraphic" in2="blurOut3" mode="normal"/></filter></defs><g><!--class ArticlesModelView--><rect fill="#FEFECE" filter="url(#fki7xkykym07e)" height="61.8359" id="ArticlesModelView" style="stroke: #A80036; stroke-width: 1.5;" width="131" x="114" y="116"/><ellipse cx="129" cy="132" fill="#ADD1B2" rx="11" ry="11" style="stroke: #A80036; stroke-width: 1.0;"/><path d="M131.7656,127.875 Q131.9219,127.6563 132.1094,127.5469 Q132.2969,127.4375 132.5156,127.4375 Q132.8906,127.4375 133.125,127.6953 Q133.3594,127.9531 133.3594,128.5625 L133.3594,130.0156 Q133.3594,130.625 133.125,130.8906 Q132.8906,131.1563 132.5156,131.1563 Q132.1719,131.1563 131.9688,130.9531 Q131.7656,130.7656 131.6563,130.25 Q131.6094,129.8906 131.4219,129.7031 Q131.0938,129.3281 130.4844,129.1094 Q129.875,128.8906 129.25,128.8906 Q128.4844,128.8906 127.8516,129.2188 Q127.2188,129.5469 126.7266,130.2969 Q126.2344,131.0469 126.2344,132.0781 L126.2344,133.1719 Q126.2344,134.4063 127.125,135.2266 Q128.0156,136.0469 129.6094,136.0469 Q130.5469,136.0469 131.2031,135.7969 Q131.5938,135.6406 132.0156,135.2031 Q132.2813,134.9375 132.4297,134.8594 Q132.5781,134.7813 132.7813,134.7813 Q133.1094,134.7813 133.3672,135.0391 Q133.625,135.2969 133.625,135.6406 Q133.625,135.9844 133.2813,136.3906 Q132.7813,136.9688 131.9844,137.2969 Q130.9063,137.75 129.6094,137.75 Q128.0938,137.75 126.8906,137.125 Q125.9063,136.625 125.2188,135.5547 Q124.5313,134.4844 124.5313,133.2031 L124.5313,132.0469 Q124.5313,130.7188 125.1484,129.5703 Q125.7656,128.4219 126.8594,127.8047 Q127.9531,127.1875 129.1875,127.1875 Q129.9219,127.1875 130.5703,127.3516 Q131.2188,127.5156 131.7656,127.875 Z "/><text fill="#000000" font-family="sans-serif" font-size="12" lengthAdjust="spacingAndGlyphs" textLength="99" x="143" y="136.9102">ArticlesModelView</text><line style="stroke: #A80036; stroke-width: 1.5;" x1="115" x2="244" y1="148" y2="148"/><text fill="#000000" font-family="sans-serif" font-size="11" lengthAdjust="spacingAndGlyphs" textLength="47" x="120" y="163.4189">id: integer</text><line style="stroke: #A80036; stroke-width: 1.5;" x1="115" x2="244" y1="169.8359" y2="169.8359"/><!--class ArticlesItemModelView--><rect fill="#FEFECE" filter="url(#fki7xkykym07e)" height="103.3438" id="ArticlesItemModelView" style="stroke: #A80036; stroke-width: 1.5;" width="155" x="6" y="238"/><ellipse cx="21" cy="254" fill="#ADD1B2" rx="11" ry="11" style="stroke: #A80036; stroke-width: 1.0;"/><path d="M23.7656,249.875 Q23.9219,249.6563 24.1094,249.5469 Q24.2969,249.4375 24.5156,249.4375 Q24.8906,249.4375 25.125,249.6953 Q25.3594,249.9531 25.3594,250.5625 L25.3594,252.0156 Q25.3594,252.625 25.125,252.8906 Q24.8906,253.1563 24.5156,253.1563 Q24.1719,253.1563 23.9688,252.9531 Q23.7656,252.7656 23.6563,252.25 Q23.6094,251.8906 23.4219,251.7031 Q23.0938,251.3281 22.4844,251.1094 Q21.875,250.8906 21.25,250.8906 Q20.4844,250.8906 19.8516,251.2188 Q19.2188,251.5469 18.7266,252.2969 Q18.2344,253.0469 18.2344,254.0781 L18.2344,255.1719 Q18.2344,256.4063 19.125,257.2266 Q20.0156,258.0469 21.6094,258.0469 Q22.5469,258.0469 23.2031,257.7969 Q23.5938,257.6406 24.0156,257.2031 Q24.2813,256.9375 24.4297,256.8594 Q24.5781,256.7813 24.7813,256.7813 Q25.1094,256.7813 25.3672,257.0391 Q25.625,257.2969 25.625,257.6406 Q25.625,257.9844 25.2813,258.3906 Q24.7813,258.9688 23.9844,259.2969 Q22.9063,259.75 21.6094,259.75 Q20.0938,259.75 18.8906,259.125 Q17.9063,258.625 17.2188,257.5547 Q16.5313,256.4844 16.5313,255.2031 L16.5313,254.0469 Q16.5313,252.7188 17.1484,251.5703 Q17.7656,250.4219 18.8594,249.8047 Q19.9531,249.1875 21.1875,249.1875 Q21.9219,249.1875 22.5703,249.3516 Q23.2188,249.5156 23.7656,249.875 Z "/><text fill="#000000" font-family="sans-serif" font-size="12" lengthAdjust="spacingAndGlyphs" textLength="123" x="35" y="258.9102">ArticlesItemModelView</text><line style="stroke: #A80036; stroke-width: 1.5;" x1="7" x2="160" y1="270" y2="270"/><text fill="#000000" font-family="sans-serif" font-size="11" lengthAdjust="spacingAndGlyphs" textLength="47" x="12" y="285.4189">id: integer</text><text fill="#000000" font-family="sans-serif" font-size="11" lengthAdjust="spacingAndGlyphs" textLength="60" x="12" y="299.2549">prix: number</text><text fill="#000000" font-family="sans-serif" font-size="11" lengthAdjust="spacingAndGlyphs" textLength="57" x="12" y="313.0908">code: string</text><text fill="#000000" font-family="sans-serif" font-size="11" lengthAdjust="spacingAndGlyphs" textLength="59" x="12" y="326.9268">libelle: string</text><line style="stroke: #A80036; stroke-width: 1.5;" x1="7" x2="160" y1="333.3438" y2="333.3438"/><!--class ArticlesModelTotalView--><rect fill="#FEFECE" filter="url(#fki7xkykym07e)" height="75.6719" id="ArticlesModelTotalView" style="stroke: #A80036; stroke-width: 1.5;" width="158" x="196.5" y="251.5"/><ellipse cx="211.5" cy="267.5" fill="#ADD1B2" rx="11" ry="11" style="stroke: #A80036; stroke-width: 1.0;"/><path d="M214.2656,263.375 Q214.4219,263.1563 214.6094,263.0469 Q214.7969,262.9375 215.0156,262.9375 Q215.3906,262.9375 215.625,263.1953 Q215.8594,263.4531 215.8594,264.0625 L215.8594,265.5156 Q215.8594,266.125 215.625,266.3906 Q215.3906,266.6563 215.0156,266.6563 Q214.6719,266.6563 214.4688,266.4531 Q214.2656,266.2656 214.1563,265.75 Q214.1094,265.3906 213.9219,265.2031 Q213.5938,264.8281 212.9844,264.6094 Q212.375,264.3906 211.75,264.3906 Q210.9844,264.3906 210.3516,264.7188 Q209.7188,265.0469 209.2266,265.7969 Q208.7344,266.5469 208.7344,267.5781 L208.7344,268.6719 Q208.7344,269.9063 209.625,270.7266 Q210.5156,271.5469 212.1094,271.5469 Q213.0469,271.5469 213.7031,271.2969 Q214.0938,271.1406 214.5156,270.7031 Q214.7813,270.4375 214.9297,270.3594 Q215.0781,270.2813 215.2813,270.2813 Q215.6094,270.2813 215.8672,270.5391 Q216.125,270.7969 216.125,271.1406 Q216.125,271.4844 215.7813,271.8906 Q215.2813,272.4688 214.4844,272.7969 Q213.4063,273.25 212.1094,273.25 Q210.5938,273.25 209.3906,272.625 Q208.4063,272.125 207.7188,271.0547 Q207.0313,269.9844 207.0313,268.7031 L207.0313,267.5469 Q207.0313,266.2188 207.6484,265.0703 Q208.2656,263.9219 209.3594,263.3047 Q210.4531,262.6875 211.6875,262.6875 Q212.4219,262.6875 213.0703,262.8516 Q213.7188,263.0156 214.2656,263.375 Z "/><text fill="#000000" font-family="sans-serif" font-size="12" lengthAdjust="spacingAndGlyphs" textLength="126" x="225.5" y="272.4102">ArticlesModelTotalView</text><line style="stroke: #A80036; stroke-width: 1.5;" x1="197.5" x2="353.5" y1="283.5" y2="283.5"/><text fill="#000000" font-family="sans-serif" font-size="11" lengthAdjust="spacingAndGlyphs" textLength="47" x="202.5" y="298.9189">id: integer</text><text fill="#000000" font-family="sans-serif" font-size="11" lengthAdjust="spacingAndGlyphs" textLength="60" x="202.5" y="312.7549">prix: number</text><line style="stroke: #A80036; stroke-width: 1.5;" x1="197.5" x2="353.5" y1="319.1719" y2="319.1719"/><!--class PaginatedListView--><rect fill="#FEFECE" filter="url(#fki7xkykym07e)" height="48" id="PaginatedListView" style="stroke: #A80036; stroke-width: 1.5;" width="134" x="112.5" y="8"/><ellipse cx="127.5" cy="24" fill="#ADD1B2" rx="11" ry="11" style="stroke: #A80036; stroke-width: 1.0;"/><path d="M130.2656,19.875 Q130.4219,19.6563 130.6094,19.5469 Q130.7969,19.4375 131.0156,19.4375 Q131.3906,19.4375 131.625,19.6953 Q131.8594,19.9531 131.8594,20.5625 L131.8594,22.0156 Q131.8594,22.625 131.625,22.8906 Q131.3906,23.1563 131.0156,23.1563 Q130.6719,23.1563 130.4688,22.9531 Q130.2656,22.7656 130.1563,22.25 Q130.1094,21.8906 129.9219,21.7031 Q129.5938,21.3281 128.9844,21.1094 Q128.375,20.8906 127.75,20.8906 Q126.9844,20.8906 126.3516,21.2188 Q125.7188,21.5469 125.2266,22.2969 Q124.7344,23.0469 124.7344,24.0781 L124.7344,25.1719 Q124.7344,26.4063 125.625,27.2266 Q126.5156,28.0469 128.1094,28.0469 Q129.0469,28.0469 129.7031,27.7969 Q130.0938,27.6406 130.5156,27.2031 Q130.7813,26.9375 130.9297,26.8594 Q131.0781,26.7813 131.2813,26.7813 Q131.6094,26.7813 131.8672,27.0391 Q132.125,27.2969 132.125,27.6406 Q132.125,27.9844 131.7813,28.3906 Q131.2813,28.9688 130.4844,29.2969 Q129.4063,29.75 128.1094,29.75 Q126.5938,29.75 125.3906,29.125 Q124.4063,28.625 123.7188,27.5547 Q123.0313,26.4844 123.0313,25.2031 L123.0313,24.0469 Q123.0313,22.7188 123.6484,21.5703 Q124.2656,20.4219 125.3594,19.8047 Q126.4531,19.1875 127.6875,19.1875 Q128.4219,19.1875 129.0703,19.3516 Q129.7188,19.5156 130.2656,19.875 Z "/><text fill="#000000" font-family="sans-serif" font-size="12" lengthAdjust="spacingAndGlyphs" textLength="102" x="141.5" y="28.9102">PaginatedListView</text><line style="stroke: #A80036; stroke-width: 1.5;" x1="113.5" x2="245.5" y1="40" y2="40"/><line style="stroke: #A80036; stroke-width: 1.5;" x1="113.5" x2="245.5" y1="48" y2="48"/><!--link PaginatedListView to ArticlesModelView--><path d="M179.5,76.14 C179.5,89.29 179.5,103.47 179.5,115.6 " fill="none" id="PaginatedListView-ArticlesModelView" style="stroke: #A80036; stroke-width: 1.0;"/><polygon fill="none" points="172.5,76.14,179.5,56.14,186.5,76.14,172.5,76.14" style="stroke: #A80036; stroke-width: 1.0;"/><!--link ArticlesModelView to ArticlesItemModelView--><path d="M158.91,178.14 C147.84,194.33 133.86,214.8 120.94,233.7 " fill="none" id="ArticlesModelView-ArticlesItemModelView" style="stroke: #A80036; stroke-width: 1.0;"/><polygon fill="#A80036" points="118.04,237.96,126.4266,232.7962,120.866,233.8352,119.8269,228.2746,118.04,237.96" style="stroke: #A80036; stroke-width: 1.0;"/><text fill="#000000" font-family="sans-serif" font-size="13" lengthAdjust="spacingAndGlyphs" textLength="7" x="147.1673" y="199.3916">1</text><text fill="#000000" font-family="sans-serif" font-size="13" lengthAdjust="spacingAndGlyphs" textLength="42" x="77.9441" y="227.0829">articles</text><!--link ArticlesModelView to ArticlesModelTotalView--><path d="M200.09,178.14 C213.83,198.25 232.08,224.95 247.18,247.05 " fill="none" id="ArticlesModelView-ArticlesModelTotalView" style="stroke: #A80036; stroke-width: 1.0;"/><polygon fill="#A80036" points="250.15,251.41,248.3859,241.7204,247.3338,247.2786,241.7756,246.2264,250.15,251.41" style="stroke: #A80036; stroke-width: 1.0;"/><text fill="#000000" font-family="sans-serif" font-size="13" lengthAdjust="spacingAndGlyphs" textLength="7" x="196.4546" y="199.3916">1</text><text fill="#000000" font-family="sans-serif" font-size="13" lengthAdjust="spacingAndGlyphs" textLength="25" x="218.408" y="240.7559">total</text><!--
@startuml
class ArticlesModelView {
  id: integer
}
class ArticlesItemModelView {
  id: integer
  prix: number
  code: string
  libelle: string
}
class ArticlesModelTotalView {
  id: integer
  prix: number
}
PaginatedListView <|- - ArticlesModelView
ArticlesModelView"1"  - -> "articles" ArticlesItemModelView
ArticlesModelView"1"  - -> "total" ArticlesModelTotalView
@enduml

PlantUML version 1.2019.06(Fri May 24 19:10:25 CEST 2019)
(GPL source distribution)
Java Runtime: Java(TM) SE Runtime Environment
JVM: Java HotSpot(TM) Client VM
Java Version: 1.8.0_291-b10
Operating System: Windows 10
OS Version: 10.0
Default Encoding: Cp1252
Language: fr
Country: FR
--></g></svg>