<?xml version="1.0" encoding="UTF-8" standalone="no"?><svg xmlns="http://www.w3.org/2000/svg" xmlns:xlink="http://www.w3.org/1999/xlink" contentScriptType="application/ecmascript" contentStyleType="text/css" height="244px" preserveAspectRatio="none" style="width:299px;height:244px;" version="1.1" viewBox="0 0 299 244" width="299px" zoomAndPan="magnify"><defs><filter height="300%" id="f1r30ltr1ml343" width="300%" x="-1" y="-1"><feGaussianBlur result="blurOut" stdDeviation="2.0"/><feColorMatrix in="blurOut" result="blurOut2" type="matrix" values="0 0 0 0 0 0 0 0 0 0 0 0 0 0 0 0 0 0 .4 0"/><feOffset dx="4.0" dy="4.0" in="blurOut2" result="blurOut3"/><feBlend in="SourceGraphic" in2="blurOut3" mode="normal"/></filter></defs><g><!--class ArticlesView--><rect fill="#FEFECE" filter="url(#f1r30ltr1ml343)" height="61.8359" id="ArticlesView" style="stroke: #A80036; stroke-width: 1.5;" width="98" x="97" y="8"/><ellipse cx="112" cy="24" fill="#ADD1B2" rx="11" ry="11" style="stroke: #A80036; stroke-width: 1.0;"/><path d="M114.7656,19.875 Q114.9219,19.6563 115.1094,19.5469 Q115.2969,19.4375 115.5156,19.4375 Q115.8906,19.4375 116.125,19.6953 Q116.3594,19.9531 116.3594,20.5625 L116.3594,22.0156 Q116.3594,22.625 116.125,22.8906 Q115.8906,23.1563 115.5156,23.1563 Q115.1719,23.1563 114.9688,22.9531 Q114.7656,22.7656 114.6563,22.25 Q114.6094,21.8906 114.4219,21.7031 Q114.0938,21.3281 113.4844,21.1094 Q112.875,20.8906 112.25,20.8906 Q111.4844,20.8906 110.8516,21.2188 Q110.2188,21.5469 109.7266,22.2969 Q109.2344,23.0469 109.2344,24.0781 L109.2344,25.1719 Q109.2344,26.4063 110.125,27.2266 Q111.0156,28.0469 112.6094,28.0469 Q113.5469,28.0469 114.2031,27.7969 Q114.5938,27.6406 115.0156,27.2031 Q115.2813,26.9375 115.4297,26.8594 Q115.5781,26.7813 115.7813,26.7813 Q116.1094,26.7813 116.3672,27.0391 Q116.625,27.2969 116.625,27.6406 Q116.625,27.9844 116.2813,28.3906 Q115.7813,28.9688 114.9844,29.2969 Q113.9063,29.75 112.6094,29.75 Q111.0938,29.75 109.8906,29.125 Q108.9063,28.625 108.2188,27.5547 Q107.5313,26.4844 107.5313,25.2031 L107.5313,24.0469 Q107.5313,22.7188 108.1484,21.5703 Q108.7656,20.4219 109.8594,19.8047 Q110.9531,19.1875 112.1875,19.1875 Q112.9219,19.1875 113.5703,19.3516 Q114.2188,19.5156 114.7656,19.875 Z "/><text fill="#000000" font-family="sans-serif" font-size="12" lengthAdjust="spacingAndGlyphs" textLength="66" x="126" y="28.9102">ArticlesView</text><line style="stroke: #A80036; stroke-width: 1.5;" x1="98" x2="194" y1="40" y2="40"/><text fill="#000000" font-family="sans-serif" font-size="11" lengthAdjust="spacingAndGlyphs" textLength="47" x="103" y="55.4189">id: integer</text><line style="stroke: #A80036; stroke-width: 1.5;" x1="98" x2="194" y1="61.8359" y2="61.8359"/><!--class ArticlesItemView--><rect fill="#FEFECE" filter="url(#f1r30ltr1ml343)" height="103.3438" id="ArticlesItemView" style="stroke: #A80036; stroke-width: 1.5;" width="122" x="6" y="130"/><ellipse cx="21" cy="146" fill="#ADD1B2" rx="11" ry="11" style="stroke: #A80036; stroke-width: 1.0;"/><path d="M23.7656,141.875 Q23.9219,141.6563 24.1094,141.5469 Q24.2969,141.4375 24.5156,141.4375 Q24.8906,141.4375 25.125,141.6953 Q25.3594,141.9531 25.3594,142.5625 L25.3594,144.0156 Q25.3594,144.625 25.125,144.8906 Q24.8906,145.1563 24.5156,145.1563 Q24.1719,145.1563 23.9688,144.9531 Q23.7656,144.7656 23.6563,144.25 Q23.6094,143.8906 23.4219,143.7031 Q23.0938,143.3281 22.4844,143.1094 Q21.875,142.8906 21.25,142.8906 Q20.4844,142.8906 19.8516,143.2188 Q19.2188,143.5469 18.7266,144.2969 Q18.2344,145.0469 18.2344,146.0781 L18.2344,147.1719 Q18.2344,148.4063 19.125,149.2266 Q20.0156,150.0469 21.6094,150.0469 Q22.5469,150.0469 23.2031,149.7969 Q23.5938,149.6406 24.0156,149.2031 Q24.2813,148.9375 24.4297,148.8594 Q24.5781,148.7813 24.7813,148.7813 Q25.1094,148.7813 25.3672,149.0391 Q25.625,149.2969 25.625,149.6406 Q25.625,149.9844 25.2813,150.3906 Q24.7813,150.9688 23.9844,151.2969 Q22.9063,151.75 21.6094,151.75 Q20.0938,151.75 18.8906,151.125 Q17.9063,150.625 17.2188,149.5547 Q16.5313,148.4844 16.5313,147.2031 L16.5313,146.0469 Q16.5313,144.7188 17.1484,143.5703 Q17.7656,142.4219 18.8594,141.8047 Q19.9531,141.1875 21.1875,141.1875 Q21.9219,141.1875 22.5703,141.3516 Q23.2188,141.5156 23.7656,141.875 Z "/><text fill="#000000" font-family="sans-serif" font-size="12" lengthAdjust="spacingAndGlyphs" textLength="90" x="35" y="150.9102">ArticlesItemView</text><line style="stroke: #A80036; stroke-width: 1.5;" x1="7" x2="127" y1="162" y2="162"/><text fill="#000000" font-family="sans-serif" font-size="11" lengthAdjust="spacingAndGlyphs" textLength="47" x="12" y="177.4189">id: integer</text><text fill="#000000" font-family="sans-serif" font-size="11" lengthAdjust="spacingAndGlyphs" textLength="60" x="12" y="191.2549">prix: number</text><text fill="#000000" font-family="sans-serif" font-size="11" lengthAdjust="spacingAndGlyphs" textLength="57" x="12" y="205.0908">code: string</text><text fill="#000000" font-family="sans-serif" font-size="11" lengthAdjust="spacingAndGlyphs" textLength="59" x="12" y="218.9268">libelle: string</text><line style="stroke: #A80036; stroke-width: 1.5;" x1="7" x2="127" y1="225.3438" y2="225.3438"/><!--class ArticlesTotalView--><rect fill="#FEFECE" filter="url(#f1r30ltr1ml343)" height="75.6719" id="ArticlesTotalView" style="stroke: #A80036; stroke-width: 1.5;" width="125" x="163.5" y="143.5"/><ellipse cx="178.5" cy="159.5" fill="#ADD1B2" rx="11" ry="11" style="stroke: #A80036; stroke-width: 1.0;"/><path d="M181.2656,155.375 Q181.4219,155.1563 181.6094,155.0469 Q181.7969,154.9375 182.0156,154.9375 Q182.3906,154.9375 182.625,155.1953 Q182.8594,155.4531 182.8594,156.0625 L182.8594,157.5156 Q182.8594,158.125 182.625,158.3906 Q182.3906,158.6563 182.0156,158.6563 Q181.6719,158.6563 181.4688,158.4531 Q181.2656,158.2656 181.1563,157.75 Q181.1094,157.3906 180.9219,157.2031 Q180.5938,156.8281 179.9844,156.6094 Q179.375,156.3906 178.75,156.3906 Q177.9844,156.3906 177.3516,156.7188 Q176.7188,157.0469 176.2266,157.7969 Q175.7344,158.5469 175.7344,159.5781 L175.7344,160.6719 Q175.7344,161.9063 176.625,162.7266 Q177.5156,163.5469 179.1094,163.5469 Q180.0469,163.5469 180.7031,163.2969 Q181.0938,163.1406 181.5156,162.7031 Q181.7813,162.4375 181.9297,162.3594 Q182.0781,162.2813 182.2813,162.2813 Q182.6094,162.2813 182.8672,162.5391 Q183.125,162.7969 183.125,163.1406 Q183.125,163.4844 182.7813,163.8906 Q182.2813,164.4688 181.4844,164.7969 Q180.4063,165.25 179.1094,165.25 Q177.5938,165.25 176.3906,164.625 Q175.4063,164.125 174.7188,163.0547 Q174.0313,161.9844 174.0313,160.7031 L174.0313,159.5469 Q174.0313,158.2188 174.6484,157.0703 Q175.2656,155.9219 176.3594,155.3047 Q177.4531,154.6875 178.6875,154.6875 Q179.4219,154.6875 180.0703,154.8516 Q180.7188,155.0156 181.2656,155.375 Z "/><text fill="#000000" font-family="sans-serif" font-size="12" lengthAdjust="spacingAndGlyphs" textLength="93" x="192.5" y="164.4102">ArticlesTotalView</text><line style="stroke: #A80036; stroke-width: 1.5;" x1="164.5" x2="287.5" y1="175.5" y2="175.5"/><text fill="#000000" font-family="sans-serif" font-size="11" lengthAdjust="spacingAndGlyphs" textLength="47" x="169.5" y="190.9189">id: integer</text><text fill="#000000" font-family="sans-serif" font-size="11" lengthAdjust="spacingAndGlyphs" textLength="60" x="169.5" y="204.7549">prix: number</text><line style="stroke: #A80036; stroke-width: 1.5;" x1="164.5" x2="287.5" y1="211.1719" y2="211.1719"/><!--link ArticlesView to ArticlesItemView--><path d="M129.05,70.14 C120.02,86.2 108.63,106.46 98.08,125.22 " fill="none" id="ArticlesView-ArticlesItemView" style="stroke: #A80036; stroke-width: 1.0;"/><polygon fill="#A80036" points="95.42,129.96,103.3168,124.0744,97.87,125.6014,96.343,120.1545,95.42,129.96" style="stroke: #A80036; stroke-width: 1.0;"/><text fill="#000000" font-family="sans-serif" font-size="13" lengthAdjust="spacingAndGlyphs" textLength="7" x="118.0239" y="91.3916">1</text><text fill="#000000" font-family="sans-serif" font-size="13" lengthAdjust="spacingAndGlyphs" textLength="42" x="54.4634" y="119.0829">articles</text><!--link ArticlesView to ArticlesTotalView--><path d="M163.16,70.14 C174.61,90.25 189.81,116.95 202.4,139.05 " fill="none" id="ArticlesView-ArticlesTotalView" style="stroke: #A80036; stroke-width: 1.0;"/><polygon fill="#A80036" points="204.88,143.41,203.8946,133.6106,202.4024,139.067,196.9459,137.5748,204.88,143.41" style="stroke: #A80036; stroke-width: 1.0;"/><text fill="#000000" font-family="sans-serif" font-size="13" lengthAdjust="spacingAndGlyphs" textLength="7" x="158.8493" y="91.3916">1</text><text fill="#000000" font-family="sans-serif" font-size="13" lengthAdjust="spacingAndGlyphs" textLength="25" x="173.8914" y="132.7559">total</text><!--
@startuml
class ArticlesView {
  id: integer
}
class ArticlesItemView {
  id: integer
  prix: number
  code: string
  libelle: string
}
class ArticlesTotalView {
  id: integer
  prix: number
}
ArticlesView"1"  - -> "articles" ArticlesItemView
ArticlesView"1"  - -> "total" ArticlesTotalView
@enduml

PlantUML version 1.2019.06(Fri May 24 19:10:25 CEST 2019)
(GPL source distribution)
Java Runtime: Java(TM) SE Runtime Environment
JVM: Java HotSpot(TM) Client VM
Java Version: 1.8.0_291-b10
Operating System: Windows 10
OS Version: 10.0
Default Encoding: Cp1252
Language: fr
Country: FR
--></g></svg>