<?xml version="1.0" encoding="UTF-8" standalone="no"?><svg xmlns="http://www.w3.org/2000/svg" xmlns:xlink="http://www.w3.org/1999/xlink" contentScriptType="application/ecmascript" contentStyleType="text/css" height="258px" preserveAspectRatio="none" style="width:148px;height:258px;" version="1.1" viewBox="0 0 148 258" width="148px" zoomAndPan="magnify"><defs><filter height="300%" id="f12g7fhh235oel" width="300%" x="-1" y="-1"><feGaussianBlur result="blurOut" stdDeviation="2.0"/><feColorMatrix in="blurOut" result="blurOut2" type="matrix" values="0 0 0 0 0 0 0 0 0 0 0 0 0 0 0 0 0 0 .4 0"/><feOffset dx="4.0" dy="4.0" in="blurOut2" result="blurOut3"/><feBlend in="SourceGraphic" in2="blurOut3" mode="normal"/></filter></defs><g><!--class FactureDetailView--><rect fill="#FEFECE" filter="url(#f12g7fhh235oel)" height="89.5078" id="FactureDetailView" style="stroke: #A80036; stroke-width: 1.5;" width="131" x="6" y="8"/><ellipse cx="21" cy="24" fill="#ADD1B2" rx="11" ry="11" style="stroke: #A80036; stroke-width: 1.0;"/><path d="M23.7656,19.875 Q23.9219,19.6563 24.1094,19.5469 Q24.2969,19.4375 24.5156,19.4375 Q24.8906,19.4375 25.125,19.6953 Q25.3594,19.9531 25.3594,20.5625 L25.3594,22.0156 Q25.3594,22.625 25.125,22.8906 Q24.8906,23.1563 24.5156,23.1563 Q24.1719,23.1563 23.9688,22.9531 Q23.7656,22.7656 23.6563,22.25 Q23.6094,21.8906 23.4219,21.7031 Q23.0938,21.3281 22.4844,21.1094 Q21.875,20.8906 21.25,20.8906 Q20.4844,20.8906 19.8516,21.2188 Q19.2188,21.5469 18.7266,22.2969 Q18.2344,23.0469 18.2344,24.0781 L18.2344,25.1719 Q18.2344,26.4063 19.125,27.2266 Q20.0156,28.0469 21.6094,28.0469 Q22.5469,28.0469 23.2031,27.7969 Q23.5938,27.6406 24.0156,27.2031 Q24.2813,26.9375 24.4297,26.8594 Q24.5781,26.7813 24.7813,26.7813 Q25.1094,26.7813 25.3672,27.0391 Q25.625,27.2969 25.625,27.6406 Q25.625,27.9844 25.2813,28.3906 Q24.7813,28.9688 23.9844,29.2969 Q22.9063,29.75 21.6094,29.75 Q20.0938,29.75 18.8906,29.125 Q17.9063,28.625 17.2188,27.5547 Q16.5313,26.4844 16.5313,25.2031 L16.5313,24.0469 Q16.5313,22.7188 17.1484,21.5703 Q17.7656,20.4219 18.8594,19.8047 Q19.9531,19.1875 21.1875,19.1875 Q21.9219,19.1875 22.5703,19.3516 Q23.2188,19.5156 23.7656,19.875 Z "/><text fill="#000000" font-family="sans-serif" font-size="12" lengthAdjust="spacingAndGlyphs" textLength="99" x="35" y="28.9102">FactureDetailView</text><line style="stroke: #A80036; stroke-width: 1.5;" x1="7" x2="136" y1="40" y2="40"/><text fill="#000000" font-family="sans-serif" font-size="11" lengthAdjust="spacingAndGlyphs" textLength="47" x="12" y="55.4189">id: integer</text><text fill="#000000" font-family="sans-serif" font-size="11" lengthAdjust="spacingAndGlyphs" textLength="81" x="12" y="69.2549">codeTiers: string</text><text fill="#000000" font-family="sans-serif" font-size="11" lengthAdjust="spacingAndGlyphs" textLength="67" x="12" y="83.0908">libTiers: string</text><line style="stroke: #A80036; stroke-width: 1.5;" x1="7" x2="136" y1="89.5078" y2="89.5078"/><!--class FactureMntView--><rect fill="#FEFECE" filter="url(#f12g7fhh235oel)" height="89.5078" id="FactureMntView" style="stroke: #A80036; stroke-width: 1.5;" width="118" x="12.5" y="158"/><ellipse cx="27.5" cy="174" fill="#ADD1B2" rx="11" ry="11" style="stroke: #A80036; stroke-width: 1.0;"/><path d="M30.2656,169.875 Q30.4219,169.6563 30.6094,169.5469 Q30.7969,169.4375 31.0156,169.4375 Q31.3906,169.4375 31.625,169.6953 Q31.8594,169.9531 31.8594,170.5625 L31.8594,172.0156 Q31.8594,172.625 31.625,172.8906 Q31.3906,173.1563 31.0156,173.1563 Q30.6719,173.1563 30.4688,172.9531 Q30.2656,172.7656 30.1563,172.25 Q30.1094,171.8906 29.9219,171.7031 Q29.5938,171.3281 28.9844,171.1094 Q28.375,170.8906 27.75,170.8906 Q26.9844,170.8906 26.3516,171.2188 Q25.7188,171.5469 25.2266,172.2969 Q24.7344,173.0469 24.7344,174.0781 L24.7344,175.1719 Q24.7344,176.4063 25.625,177.2266 Q26.5156,178.0469 28.1094,178.0469 Q29.0469,178.0469 29.7031,177.7969 Q30.0938,177.6406 30.5156,177.2031 Q30.7813,176.9375 30.9297,176.8594 Q31.0781,176.7813 31.2813,176.7813 Q31.6094,176.7813 31.8672,177.0391 Q32.125,177.2969 32.125,177.6406 Q32.125,177.9844 31.7813,178.3906 Q31.2813,178.9688 30.4844,179.2969 Q29.4063,179.75 28.1094,179.75 Q26.5938,179.75 25.3906,179.125 Q24.4063,178.625 23.7188,177.5547 Q23.0313,176.4844 23.0313,175.2031 L23.0313,174.0469 Q23.0313,172.7188 23.6484,171.5703 Q24.2656,170.4219 25.3594,169.8047 Q26.4531,169.1875 27.6875,169.1875 Q28.4219,169.1875 29.0703,169.3516 Q29.7188,169.5156 30.2656,169.875 Z "/><text fill="#000000" font-family="sans-serif" font-size="12" lengthAdjust="spacingAndGlyphs" textLength="86" x="41.5" y="178.9102">FactureMntView</text><line style="stroke: #A80036; stroke-width: 1.5;" x1="13.5" x2="129.5" y1="190" y2="190"/><text fill="#000000" font-family="sans-serif" font-size="11" lengthAdjust="spacingAndGlyphs" textLength="50" x="18.5" y="205.4189">id: number</text><text fill="#000000" font-family="sans-serif" font-size="11" lengthAdjust="spacingAndGlyphs" textLength="88" x="18.5" y="219.2549">codeArticle: string</text><text fill="#000000" font-family="sans-serif" font-size="11" lengthAdjust="spacingAndGlyphs" textLength="74" x="18.5" y="233.0908">libArticle: string</text><line style="stroke: #A80036; stroke-width: 1.5;" x1="13.5" x2="129.5" y1="239.5078" y2="239.5078"/><!--link FactureDetailView to FactureMntView--><path d="M71.5,98 C71.5,115.15 71.5,134.87 71.5,152.51 " fill="none" id="FactureDetailView-FactureMntView" style="stroke: #A80036; stroke-width: 1.0;"/><polygon fill="#A80036" points="71.5,157.91,75.5,148.91,71.5,152.91,67.5,148.91,71.5,157.91" style="stroke: #A80036; stroke-width: 1.0;"/><text fill="#000000" font-family="sans-serif" font-size="13" lengthAdjust="spacingAndGlyphs" textLength="7" x="64.0078" y="119.0076">1</text><text fill="#000000" font-family="sans-serif" font-size="13" lengthAdjust="spacingAndGlyphs" textLength="34" x="34.7906" y="147.0111">lignes</text><!--
@startuml
class FactureDetailView {
  id: integer
  codeTiers: string
  libTiers: string
}
class FactureMntView {
  id: number
  codeArticle: string
  libArticle: string
}
FactureDetailView"1"  - -> "lignes" FactureMntView
@enduml

PlantUML version 1.2019.06(Fri May 24 19:10:25 CEST 2019)
(GPL source distribution)
Java Runtime: Java(TM) SE Runtime Environment
JVM: Java HotSpot(TM) Client VM
Java Version: 1.8.0_291-b10
Operating System: Windows 10
OS Version: 10.0
Default Encoding: Cp1252
Language: fr
Country: FR
--></g></svg>