<?xml version="1.0" encoding="UTF-8" standalone="no"?><svg xmlns="http://www.w3.org/2000/svg" xmlns:xlink="http://www.w3.org/1999/xlink" contentScriptType="application/ecmascript" contentStyleType="text/css" height="532px" preserveAspectRatio="none" style="width:246px;height:532px;" version="1.1" viewBox="0 0 246 532" width="246px" zoomAndPan="magnify"><defs><filter height="300%" id="fsqjzopocvov3" width="300%" x="-1" y="-1"><feGaussianBlur result="blurOut" stdDeviation="2.0"/><feColorMatrix in="blurOut" result="blurOut2" type="matrix" values="0 0 0 0 0 0 0 0 0 0 0 0 0 0 0 0 0 0 .4 0"/><feOffset dx="4.0" dy="4.0" in="blurOut2" result="blurOut3"/><feBlend in="SourceGraphic" in2="blurOut3" mode="normal"/></filter></defs><g><!--class Facture--><rect fill="#FEFECE" filter="url(#fsqjzopocvov3)" height="131.0156" id="Facture" style="stroke: #A80036; stroke-width: 1.5;" width="89" x="72" y="8"/><ellipse cx="94.2" cy="24" fill="#ADD1B2" rx="11" ry="11" style="stroke: #A80036; stroke-width: 1.0;"/><path d="M96.9656,19.875 Q97.1219,19.6563 97.3094,19.5469 Q97.4969,19.4375 97.7156,19.4375 Q98.0906,19.4375 98.325,19.6953 Q98.5594,19.9531 98.5594,20.5625 L98.5594,22.0156 Q98.5594,22.625 98.325,22.8906 Q98.0906,23.1563 97.7156,23.1563 Q97.3719,23.1563 97.1688,22.9531 Q96.9656,22.7656 96.8563,22.25 Q96.8094,21.8906 96.6219,21.7031 Q96.2938,21.3281 95.6844,21.1094 Q95.075,20.8906 94.45,20.8906 Q93.6844,20.8906 93.0516,21.2188 Q92.4188,21.5469 91.9266,22.2969 Q91.4344,23.0469 91.4344,24.0781 L91.4344,25.1719 Q91.4344,26.4063 92.325,27.2266 Q93.2156,28.0469 94.8094,28.0469 Q95.7469,28.0469 96.4031,27.7969 Q96.7938,27.6406 97.2156,27.2031 Q97.4813,26.9375 97.6297,26.8594 Q97.7781,26.7813 97.9813,26.7813 Q98.3094,26.7813 98.5672,27.0391 Q98.825,27.2969 98.825,27.6406 Q98.825,27.9844 98.4813,28.3906 Q97.9813,28.9688 97.1844,29.2969 Q96.1063,29.75 94.8094,29.75 Q93.2938,29.75 92.0906,29.125 Q91.1063,28.625 90.4188,27.5547 Q89.7313,26.4844 89.7313,25.2031 L89.7313,24.0469 Q89.7313,22.7188 90.3484,21.5703 Q90.9656,20.4219 92.0594,19.8047 Q93.1531,19.1875 94.3875,19.1875 Q95.1219,19.1875 95.7703,19.3516 Q96.4188,19.5156 96.9656,19.875 Z "/><text fill="#000000" font-family="sans-serif" font-size="12" lengthAdjust="spacingAndGlyphs" textLength="41" x="109.8" y="28.9102">Facture</text><line style="stroke: #A80036; stroke-width: 1.5;" x1="73" x2="160" y1="40" y2="40"/><text fill="#000000" font-family="sans-serif" font-size="11" lengthAdjust="spacingAndGlyphs" textLength="57" x="78" y="55.4189">code: string</text><text fill="#000000" font-family="sans-serif" font-size="11" lengthAdjust="spacingAndGlyphs" textLength="59" x="78" y="69.2549">libelle: string</text><text fill="#000000" font-family="sans-serif" font-size="11" lengthAdjust="spacingAndGlyphs" textLength="71" x="78" y="83.0908">refTiers: string</text><text fill="#000000" font-family="sans-serif" font-size="11" lengthAdjust="spacingAndGlyphs" textLength="57" x="78" y="96.9268">dtFact: date</text><text fill="#000000" font-family="sans-serif" font-size="11" lengthAdjust="spacingAndGlyphs" textLength="77" x="78" y="110.7627">tenantId: integer</text><text fill="#000000" font-family="sans-serif" font-size="11" lengthAdjust="spacingAndGlyphs" textLength="47" x="78" y="124.5986">id: integer</text><line style="stroke: #A80036; stroke-width: 1.5;" x1="73" x2="160" y1="131.0156" y2="131.0156"/><!--class Tiers--><rect fill="#FEFECE" filter="url(#fsqjzopocvov3)" height="103.3438" id="Tiers" style="stroke: #A80036; stroke-width: 1.5;" width="89" x="6" y="220"/><ellipse cx="34.05" cy="236" fill="#ADD1B2" rx="11" ry="11" style="stroke: #A80036; stroke-width: 1.0;"/><path d="M36.8156,231.875 Q36.9719,231.6563 37.1594,231.5469 Q37.3469,231.4375 37.5656,231.4375 Q37.9406,231.4375 38.175,231.6953 Q38.4094,231.9531 38.4094,232.5625 L38.4094,234.0156 Q38.4094,234.625 38.175,234.8906 Q37.9406,235.1563 37.5656,235.1563 Q37.2219,235.1563 37.0188,234.9531 Q36.8156,234.7656 36.7063,234.25 Q36.6594,233.8906 36.4719,233.7031 Q36.1438,233.3281 35.5344,233.1094 Q34.925,232.8906 34.3,232.8906 Q33.5344,232.8906 32.9016,233.2188 Q32.2688,233.5469 31.7766,234.2969 Q31.2844,235.0469 31.2844,236.0781 L31.2844,237.1719 Q31.2844,238.4063 32.175,239.2266 Q33.0656,240.0469 34.6594,240.0469 Q35.5969,240.0469 36.2531,239.7969 Q36.6438,239.6406 37.0656,239.2031 Q37.3313,238.9375 37.4797,238.8594 Q37.6281,238.7813 37.8313,238.7813 Q38.1594,238.7813 38.4172,239.0391 Q38.675,239.2969 38.675,239.6406 Q38.675,239.9844 38.3313,240.3906 Q37.8313,240.9688 37.0344,241.2969 Q35.9563,241.75 34.6594,241.75 Q33.1438,241.75 31.9406,241.125 Q30.9562,240.625 30.2687,239.5547 Q29.5812,238.4844 29.5812,237.2031 L29.5812,236.0469 Q29.5812,234.7188 30.1984,233.5703 Q30.8156,232.4219 31.9094,231.8047 Q33.0031,231.1875 34.2375,231.1875 Q34.9719,231.1875 35.6203,231.3516 Q36.2688,231.5156 36.8156,231.875 Z "/><text fill="#000000" font-family="sans-serif" font-size="12" lengthAdjust="spacingAndGlyphs" textLength="28" x="50.95" y="240.9102">Tiers</text><line style="stroke: #A80036; stroke-width: 1.5;" x1="7" x2="94" y1="252" y2="252"/><text fill="#000000" font-family="sans-serif" font-size="11" lengthAdjust="spacingAndGlyphs" textLength="57" x="12" y="267.4189">code: string</text><text fill="#000000" font-family="sans-serif" font-size="11" lengthAdjust="spacingAndGlyphs" textLength="59" x="12" y="281.2549">libelle: string</text><text fill="#000000" font-family="sans-serif" font-size="11" lengthAdjust="spacingAndGlyphs" textLength="77" x="12" y="295.0908">tenantId: integer</text><text fill="#000000" font-family="sans-serif" font-size="11" lengthAdjust="spacingAndGlyphs" textLength="47" x="12" y="308.9268">id: integer</text><line style="stroke: #A80036; stroke-width: 1.5;" x1="7" x2="94" y1="315.3438" y2="315.3438"/><!--class FactureDetail--><rect fill="#FEFECE" filter="url(#fsqjzopocvov3)" height="144.8516" id="FactureDetail" style="stroke: #A80036; stroke-width: 1.5;" width="105" x="130" y="199"/><ellipse cx="145" cy="215" fill="#ADD1B2" rx="11" ry="11" style="stroke: #A80036; stroke-width: 1.0;"/><path d="M147.7656,210.875 Q147.9219,210.6563 148.1094,210.5469 Q148.2969,210.4375 148.5156,210.4375 Q148.8906,210.4375 149.125,210.6953 Q149.3594,210.9531 149.3594,211.5625 L149.3594,213.0156 Q149.3594,213.625 149.125,213.8906 Q148.8906,214.1563 148.5156,214.1563 Q148.1719,214.1563 147.9688,213.9531 Q147.7656,213.7656 147.6563,213.25 Q147.6094,212.8906 147.4219,212.7031 Q147.0938,212.3281 146.4844,212.1094 Q145.875,211.8906 145.25,211.8906 Q144.4844,211.8906 143.8516,212.2188 Q143.2188,212.5469 142.7266,213.2969 Q142.2344,214.0469 142.2344,215.0781 L142.2344,216.1719 Q142.2344,217.4063 143.125,218.2266 Q144.0156,219.0469 145.6094,219.0469 Q146.5469,219.0469 147.2031,218.7969 Q147.5938,218.6406 148.0156,218.2031 Q148.2813,217.9375 148.4297,217.8594 Q148.5781,217.7813 148.7813,217.7813 Q149.1094,217.7813 149.3672,218.0391 Q149.625,218.2969 149.625,218.6406 Q149.625,218.9844 149.2813,219.3906 Q148.7813,219.9688 147.9844,220.2969 Q146.9063,220.75 145.6094,220.75 Q144.0938,220.75 142.8906,220.125 Q141.9063,219.625 141.2188,218.5547 Q140.5313,217.4844 140.5313,216.2031 L140.5313,215.0469 Q140.5313,213.7188 141.1484,212.5703 Q141.7656,211.4219 142.8594,210.8047 Q143.9531,210.1875 145.1875,210.1875 Q145.9219,210.1875 146.5703,210.3516 Q147.2188,210.5156 147.7656,210.875 Z "/><text fill="#000000" font-family="sans-serif" font-size="12" lengthAdjust="spacingAndGlyphs" textLength="73" x="159" y="219.9102">FactureDetail</text><line style="stroke: #A80036; stroke-width: 1.5;" x1="131" x2="234" y1="231" y2="231"/><text fill="#000000" font-family="sans-serif" font-size="11" lengthAdjust="spacingAndGlyphs" textLength="57" x="136" y="246.4189">code: string</text><text fill="#000000" font-family="sans-serif" font-size="11" lengthAdjust="spacingAndGlyphs" textLength="59" x="136" y="260.2549">libelle: string</text><text fill="#000000" font-family="sans-serif" font-size="11" lengthAdjust="spacingAndGlyphs" textLength="80" x="136" y="274.0908">montant: number</text><text fill="#000000" font-family="sans-serif" font-size="11" lengthAdjust="spacingAndGlyphs" textLength="78" x="136" y="287.9268">refArticle: string</text><text fill="#000000" font-family="sans-serif" font-size="11" lengthAdjust="spacingAndGlyphs" textLength="78" x="136" y="301.7627">parentId: integer</text><text fill="#000000" font-family="sans-serif" font-size="11" lengthAdjust="spacingAndGlyphs" textLength="77" x="136" y="315.5986">tenantId: integer</text><text fill="#000000" font-family="sans-serif" font-size="11" lengthAdjust="spacingAndGlyphs" textLength="47" x="136" y="329.4346">id: integer</text><line style="stroke: #A80036; stroke-width: 1.5;" x1="131" x2="234" y1="335.8516" y2="335.8516"/><!--class Article--><rect fill="#FEFECE" filter="url(#fsqjzopocvov3)" height="117.1797" id="Article" style="stroke: #A80036; stroke-width: 1.5;" width="89" x="138" y="404"/><ellipse cx="163.8" cy="420" fill="#ADD1B2" rx="11" ry="11" style="stroke: #A80036; stroke-width: 1.0;"/><path d="M166.5656,415.875 Q166.7219,415.6563 166.9094,415.5469 Q167.0969,415.4375 167.3156,415.4375 Q167.6906,415.4375 167.925,415.6953 Q168.1594,415.9531 168.1594,416.5625 L168.1594,418.0156 Q168.1594,418.625 167.925,418.8906 Q167.6906,419.1563 167.3156,419.1563 Q166.9719,419.1563 166.7688,418.9531 Q166.5656,418.7656 166.4563,418.25 Q166.4094,417.8906 166.2219,417.7031 Q165.8938,417.3281 165.2844,417.1094 Q164.675,416.8906 164.05,416.8906 Q163.2844,416.8906 162.6516,417.2188 Q162.0188,417.5469 161.5266,418.2969 Q161.0344,419.0469 161.0344,420.0781 L161.0344,421.1719 Q161.0344,422.4063 161.925,423.2266 Q162.8156,424.0469 164.4094,424.0469 Q165.3469,424.0469 166.0031,423.7969 Q166.3938,423.6406 166.8156,423.2031 Q167.0813,422.9375 167.2297,422.8594 Q167.3781,422.7813 167.5813,422.7813 Q167.9094,422.7813 168.1672,423.0391 Q168.425,423.2969 168.425,423.6406 Q168.425,423.9844 168.0813,424.3906 Q167.5813,424.9688 166.7844,425.2969 Q165.7063,425.75 164.4094,425.75 Q162.8938,425.75 161.6906,425.125 Q160.7063,424.625 160.0188,423.5547 Q159.3313,422.4844 159.3313,421.2031 L159.3313,420.0469 Q159.3313,418.7188 159.9484,417.5703 Q160.5656,416.4219 161.6594,415.8047 Q162.7531,415.1875 163.9875,415.1875 Q164.7219,415.1875 165.3703,415.3516 Q166.0188,415.5156 166.5656,415.875 Z "/><text fill="#000000" font-family="sans-serif" font-size="12" lengthAdjust="spacingAndGlyphs" textLength="33" x="180.2" y="424.9102">Article</text><line style="stroke: #A80036; stroke-width: 1.5;" x1="139" x2="226" y1="436" y2="436"/><text fill="#000000" font-family="sans-serif" font-size="11" lengthAdjust="spacingAndGlyphs" textLength="57" x="144" y="451.4189">code: string</text><text fill="#000000" font-family="sans-serif" font-size="11" lengthAdjust="spacingAndGlyphs" textLength="59" x="144" y="465.2549">libelle: string</text><text fill="#000000" font-family="sans-serif" font-size="11" lengthAdjust="spacingAndGlyphs" textLength="60" x="144" y="479.0908">prix: number</text><text fill="#000000" font-family="sans-serif" font-size="11" lengthAdjust="spacingAndGlyphs" textLength="77" x="144" y="492.9268">tenantId: integer</text><text fill="#000000" font-family="sans-serif" font-size="11" lengthAdjust="spacingAndGlyphs" textLength="47" x="144" y="506.7627">id: integer</text><line style="stroke: #A80036; stroke-width: 1.5;" x1="139" x2="226" y1="513.1797" y2="513.1797"/><!--link Facture to Tiers--><path d="M94.71,139.22 C86.47,163.68 77.17,191.29 69.24,214.85 " fill="none" id="Facture-Tiers" style="stroke: #A80036; stroke-width: 1.0;"/><polygon fill="#A80036" points="67.57,219.81,74.2436,212.5669,69.1726,215.0738,66.6657,210.0027,67.57,219.81" style="stroke: #A80036; stroke-width: 1.0;"/><text fill="#000000" font-family="sans-serif" font-size="13" lengthAdjust="spacingAndGlyphs" textLength="7" x="85.102" y="160.3348">1</text><text fill="#000000" font-family="sans-serif" font-size="13" lengthAdjust="spacingAndGlyphs" textLength="25" x="43.1841" y="209.2848">tiers</text><!--link Facture to FactureDetail--><path d="M142.1164,150.5936 C142.1164,150.5936 150.26,174.76 154.08,186.09 " fill="none" id="Facture-FactureDetail" style="stroke: #A80036; stroke-width: 1.0;"/><polygon fill="#A80036" points="158.34,198.74,159.2512,188.9334,156.7407,194.0027,151.6715,191.4922,158.34,198.74" style="stroke: #A80036; stroke-width: 1.0;"/><line style="stroke: #A80036; stroke-width: 1.0;" x1="156.7407" x2="154.19" y1="194.0027" y2="186.425"/><polygon fill="#A80036" points="138.29,139.22,136.412,146.1823,142.1164,150.5936,143.9944,143.6313,138.29,139.22" style="stroke: #A80036; stroke-width: 1.0;"/><text fill="#000000" font-family="sans-serif" font-size="13" lengthAdjust="spacingAndGlyphs" textLength="7" x="133.1762" y="160.3348">1</text><text fill="#000000" font-family="sans-serif" font-size="13" lengthAdjust="spacingAndGlyphs" textLength="38" x="115.8891" y="187.9325">details</text><!--link FactureDetail to Article--><path d="M182.5,344.22 C182.5,362.11 182.5,381.15 182.5,398.58 " fill="none" id="FactureDetail-Article" style="stroke: #A80036; stroke-width: 1.0;"/><polygon fill="#A80036" points="182.5,403.93,186.5,394.93,182.5,398.93,178.5,394.93,182.5,403.93" style="stroke: #A80036; stroke-width: 1.0;"/><text fill="#000000" font-family="sans-serif" font-size="13" lengthAdjust="spacingAndGlyphs" textLength="7" x="175.1664" y="365.4326">1</text><text fill="#000000" font-family="sans-serif" font-size="13" lengthAdjust="spacingAndGlyphs" textLength="25" x="155.9766" y="393.3224">tiers</text><!--
@startuml
class Facture {
  code: string
  libelle: string
  refTiers: string
  dtFact: date
  tenantId: integer
  id: integer
}
class Tiers {
  code: string
  libelle: string
  tenantId: integer
  id: integer
}
class FactureDetail {
  code: string
  libelle: string
  montant: number
  refArticle: string
  parentId: integer
  tenantId: integer
  id: integer
}
class Article {
  code: string
  libelle: string
  prix: number
  tenantId: integer
  id: integer
}
Facture"1"  - -> "tiers" Tiers
Facture"1"  *- -> "details" FactureDetail
FactureDetail"1"  - -> "tiers" Article
@enduml

PlantUML version 1.2019.06(Fri May 24 19:10:25 CEST 2019)
(GPL source distribution)
Java Runtime: Java(TM) SE Runtime Environment
JVM: Java HotSpot(TM) Client VM
Java Version: 1.8.0_291-b10
Operating System: Windows 10
OS Version: 10.0
Default Encoding: Cp1252
Language: fr
Country: FR
--></g></svg>